<?xml version="1.0" encoding="UTF-8"?>
<!DOCTYPE svg PUBLIC "-//W3C//DTD SVG 1.1//EN" "http://www.w3.org/Graphics/SVG/1.1/DTD/svg11.dtd">
<!-- Creator: CorelDRAW 2020 (64-Bit) -->
<svg xmlns="http://www.w3.org/2000/svg" xml:space="preserve" width="846px" height="846px" version="1.1" style="shape-rendering:geometricPrecision; text-rendering:geometricPrecision; image-rendering:optimizeQuality; fill-rule:evenodd; clip-rule:evenodd"
viewBox="0 0 846 846"
 xmlns:xlink="http://www.w3.org/1999/xlink"
 xmlns:xodm="http://www.corel.com/coreldraw/odm/2003">
 <defs>
  <style type="text/css">
   <![CDATA[
    .fil0 {fill:#EF4B37}
    .fil1 {fill:#FF8672}
   ]]>
  </style>
 </defs>
 <g id="Capa_x0020_1">
  <metadata id="CorelCorpID_0Corel-Layer"/>
  <g id="_2134919734736">
   <path class="fil0" d="M262.93 801.94c1.53,-1.04 1.58,-1.36 4.86,-2.48 2.77,-0.94 21.73,-3.51 39.69,-9.27 187.7,-60.27 222.53,-328.1 33.5,-428.72 -29.3,-15.6 -50.9,-18.74 -85.58,-25.13 80.23,-6.33 152.62,37.95 196.71,96.15 15.55,20.51 22.17,38.87 33.12,64.81 44.52,-10.91 90.69,-52.26 115.8,-87.77 45.65,-64.55 55.79,-164.58 14.37,-240.55 -12.49,-22.91 -29.05,-45.65 -44.06,-59.76 -65.74,-61.82 -119.46,-56.08 -141,-65.16 -72.67,1.09 -106.11,7.07 -162.39,46.93 -67.82,48.04 -113.3,154.24 -84.18,249.24 -34.99,12.7 -49.8,14.65 -78.98,34.04 -21.09,14.01 -44.66,35.66 -58.08,54.9 -32.36,46.37 -55.88,104.84 -43.23,178.63 15.63,91.07 79.27,156.51 157.85,182.93 36.61,12.31 60.97,10.76 101.6,11.21z"/>
   <path class="fil0" d="M438.7 724.28c22.2,22.83 45.18,43.77 81.71,59.02 44.75,18.69 68.71,18.06 121.55,18.64 2.83,-1.93 0.78,-1.33 6.44,-3 4.96,-1.46 15.99,-1.65 38.1,-8.75 88.52,-28.43 154.47,-111.57 159.24,-210.34 3.09,-64.12 -21.96,-123.14 -52.38,-158.76 -31.82,-37.26 -82.34,-73.97 -131.42,-79.98 -5.8,22.53 -15.59,41.69 -26.09,59.49 -33.28,56.4 -85.35,87.01 -148.29,104.94 14.72,58.55 10.12,123.42 -20.66,176.18l-28.2 42.56z"/>
   <path class="fil1" d="M68.39 535.51c-38.2,8.01 -27.92,65.14 11.95,56.8 36.1,-7.56 24.45,-64.43 -11.95,-56.8z"/>
   <path class="fil1" d="M393.28 579.56c-40.91,9.38 -23.04,67.28 14.58,55.91 33.7,-10.18 21.98,-64.29 -14.58,-55.91z"/>
   <path class="fil1" d="M488.92 263.86c-38.81,11.21 -20.69,66.15 15.22,56.03 36.55,-10.31 20.77,-66.41 -15.22,-56.03z"/>
   <path class="fil1" d="M587.98 681.44c-39.94,9.48 -25.19,64.02 11.75,56.77 34.25,-6.72 26.09,-65.75 -11.75,-56.77z"/>
   <path class="fil1" d="M262.16 405.78c-18.1,9.73 -6.39,39.33 15.43,30.21 19.17,-8.02 6.39,-41.94 -15.43,-30.21z"/>
   <path class="fil1" d="M691 473.49c-21.72,10.48 -5.57,40.18 15.15,30.23 16.95,-8.14 6.46,-40.65 -15.15,-30.23z"/>
   <path class="fil1" d="M790.73 611.68c-19.86,7.97 -8.55,40.52 13.99,30.78 18.58,-8.02 7.95,-39.59 -13.99,-30.78z"/>
   <path class="fil1" d="M345.03 140.05c-22.19,7.89 -9.91,39.53 12.14,31.38 18.25,-6.74 10.15,-39.31 -12.14,-31.38z"/>
   <path class="fil1" d="M205 546.7c-22.28,12.65 -3.27,38.82 14.49,29.85 19.02,-9.61 4.57,-40.67 -14.49,-29.85z"/>
  </g>
 </g>
</svg>
