<?xml version="1.0" encoding="UTF-8"?>
<!DOCTYPE svg PUBLIC "-//W3C//DTD SVG 1.1//EN" "http://www.w3.org/Graphics/SVG/1.1/DTD/svg11.dtd">
<!-- Creator: CorelDRAW 2020 (64-Bit) -->
<svg xmlns="http://www.w3.org/2000/svg" xml:space="preserve" width="846px" height="846px" version="1.1" style="shape-rendering:geometricPrecision; text-rendering:geometricPrecision; image-rendering:optimizeQuality; fill-rule:evenodd; clip-rule:evenodd"
viewBox="0 0 846 846"
 xmlns:xlink="http://www.w3.org/1999/xlink"
 xmlns:xodm="http://www.corel.com/coreldraw/odm/2003">
 <defs>
  <style type="text/css">
   <![CDATA[
    .fil0 {fill:black}
    .fil3 {fill:#FDE301}
    .fil2 {fill:#FDF28A}
    .fil1 {fill:#FEF8CD}
   ]]>
  </style>
 </defs>
 <g id="Capa_x0020_1">
  <metadata id="CorelCorpID_0Corel-Layer"/>
  <path class="fil0" d="M274.27 365.48c-36.68,-8.55 -42.06,-24.3 -59.7,-3.92 -4.95,5.73 -6.54,8.38 -12.21,13.94 -4.67,4.58 -22.22,23.17 -22.22,28.33 0,7.68 6.14,11.83 13.6,23 16.61,24.87 27.42,49.56 35.24,79.8 13.61,52.65 -3.16,68 19.73,76.14l98.09 34.39c10.4,3.63 135.14,49.24 142.44,47.06l303.73 -210.58c30.55,-22.23 53.03,-30.24 53.03,-81.19l0 -153.39c0,-63.3 -46.51,-70.65 -98.25,-88.26l-70.09 -24.04c-14.23,-5.5 -58.49,-21.92 -72.2,-21.92 -25.8,0 -37.18,11.54 -52.99,21.97l-146.76 102.5c-4.37,3.03 -7.43,4.77 -11.43,7.74l-113.12 78.62c-9.95,6.74 -6.9,11.47 -6.89,31.46 0,12.78 0,25.56 0,38.35z"/>
  <path class="fil1" d="M529.1 384.32c6.88,-1.5 59.61,-40.46 71.32,-48.25 23.79,-15.84 47.34,-32.54 70.78,-49.49 23.76,-17.18 47.72,-32.39 70.94,-49.34 6.43,-4.7 67.21,-44.68 71.29,-51.66 -7.89,-14.06 -44.89,-23.2 -65.66,-30.4 -24.34,-8.43 -48.25,-16.72 -72.43,-25.19 -87.19,-30.53 -68.22,-31.99 -135.37,13.16 -55.82,37.54 -116.37,83.16 -171.46,119.61 -20.1,13.31 -38.18,27.78 -57.21,40.17 6.49,4.6 43.32,15.81 54.48,19.81 18.44,6.62 37.4,13.13 55.75,19.27l96.44 34.24c6.6,3.22 5.16,3.71 11.13,8.07z"/>
  <path class="fil2" d="M529.1 384.32c10.81,24.4 5.76,75.61 5.89,106.66 0.16,37.81 -0.48,75.79 0.12,113.58 9.44,-3.54 18.99,-12.09 26.92,-17.57 78.06,-53.98 158.38,-112.35 236.02,-164.85 25.5,-17.25 24.58,-26.44 24.41,-65.38 -0.12,-29.61 -0.01,-59.28 0.05,-88.89 0.04,-26.47 5.04,-63.97 -9.08,-82.29 -4.08,6.98 -64.86,46.96 -71.29,51.66 -23.22,16.95 -47.18,32.16 -70.94,49.34 -23.44,16.95 -46.99,33.65 -70.78,49.49 -11.71,7.79 -64.44,46.75 -71.32,48.25z"/>
  <path class="fil0" d="M237.66 761.16l58.91 -16.04c9.56,-2.42 20.84,-4.84 31.72,-6.63l34.15 -4.23c20.45,-3.1 20.26,6.68 36.35,-5.46l40.07 -27.91c5.25,-3.8 38.36,-22.9 8.69,-32.83l-201.81 -71.86c-12.97,-4.41 -24.51,-8.53 -38.19,-10.61 -58.51,-8.88 -120.76,-0.61 -173.09,14.2 -27,7.63 -23.63,2.62 -30.14,41.32 -6.59,39.12 -9.06,34.69 18.31,43.99l215.03 76.06z"/>
  <path class="fil3" d="M259.21 561.88l214.8 75.1c1.44,-29 -6.51,-73.35 -16.06,-97.88 -16.41,-42.14 -32.46,-44.36 -62.26,-54.51l-130.51 -43.79c-10.66,-3.62 -34.3,-12.97 -44.23,-14.08 3.81,8.89 9.81,18.34 14.19,28.49 15.15,35.08 22.66,67.16 24.07,106.67z"/>
  <path class="fil1" d="M39.83 621.89c5.88,4.09 45.49,17.05 52.57,19.59l102.93 36.52c11.67,4.19 42.38,16.53 51.63,17.39 4.19,0.42 55.72,-12.45 66.95,-14.6 12.21,-2.33 25.04,-3.63 37.18,-4.81 13.13,-1.28 30.36,-0.25 42.23,-2.64 -22.92,-10.21 -54.11,-19.74 -79.36,-28.55 -27.32,-9.54 -53.73,-19.25 -81.1,-28.73 -60.63,-21.01 -133.09,-8.83 -193.03,5.83z"/>
  <path class="fil3" d="M296.9 361.99l0.01 12.29 124.17 41.38c38.71,13.1 54.58,15.2 77.09,48.38 2.73,4.02 13.64,22.05 13.75,25.95l-0.1 -92.2 -214.83 -75.15 -0.09 39.35z"/>
  <path class="fil3" d="M240.36 736.72l6.6 -41.33c-9.25,-0.86 -39.96,-13.2 -51.63,-17.39l-102.93 -36.52c-7.08,-2.54 -46.69,-15.5 -52.57,-19.59l-9.54 2.88 -6.32 37.37c11.6,2.37 90.03,31.34 107.79,37.6 15.16,5.36 100.26,37.52 108.6,36.98z"/>
  <path class="fil1" d="M423.56 470.07c6.06,-8.62 14.44,-13.51 19.48,-23.06l-210.62 -71.21c-3.19,4.19 -5.84,7.82 -9.52,11.55 -5.32,5.38 -6.42,4.76 -9.67,11.25 6.94,4.61 89.39,31.02 104.86,36.36 34.96,12.07 70.12,24.14 105.47,35.11z"/>
  <path class="fil2" d="M246.96 695.39l-6.6 41.33c31.83,-7.81 60.41,-17.61 94.96,-22.62 54.76,-7.95 32.67,8.37 69.79,-17.35 6.04,-4.18 11.72,-8.37 17.33,-11.94 -5.89,-5.49 -19.94,-9.24 -29.12,-11.47 -11.87,2.39 -29.1,1.36 -42.23,2.64 -12.14,1.18 -24.97,2.48 -37.18,4.81 -11.23,2.15 -62.76,15.02 -66.95,14.6z"/>
  <path class="fil2" d="M423.56 470.07c60.21,18.62 68.84,109.51 73.14,161.06 5.35,-2.31 11.75,-7.2 15.36,-11.16 1.98,-64.62 -18.44,-160.13 -69.02,-172.96 -5.04,9.55 -13.42,14.44 -19.48,23.06z"/>
 </g>
</svg>
