<?xml version="1.0" encoding="UTF-8"?>
<!DOCTYPE svg PUBLIC "-//W3C//DTD SVG 1.1//EN" "http://www.w3.org/Graphics/SVG/1.1/DTD/svg11.dtd">
<!-- Creator: CorelDRAW 2020 (64-Bit) -->
<svg xmlns="http://www.w3.org/2000/svg" xml:space="preserve" width="846px" height="846px" version="1.1" style="shape-rendering:geometricPrecision; text-rendering:geometricPrecision; image-rendering:optimizeQuality; fill-rule:evenodd; clip-rule:evenodd"
viewBox="0 0 846 846"
 xmlns:xlink="http://www.w3.org/1999/xlink"
 xmlns:xodm="http://www.corel.com/coreldraw/odm/2003">
 <defs>
  <style type="text/css">
   <![CDATA[
    .fil4 {fill:#685D28}
    .fil3 {fill:#849326}
    .fil0 {fill:#A59017}
    .fil1 {fill:#BFAB19}
    .fil5 {fill:#C8BB79}
    .fil2 {fill:#CEB93E}
   ]]>
  </style>
 </defs>
 <g id="Capa_x0020_1">
  <metadata id="CorelCorpID_0Corel-Layer"/>
  <g id="_3141746768032">
   <path class="fil0" d="M506.72 516.17c-79.23,9.46 -146.87,77.85 -132.8,169.52 11.59,75.54 88.4,136.29 178.49,122.62 196.85,-29.88 156.93,-316.34 -45.69,-292.14z"/>
   <path class="fil1" d="M243 219l0.34 6.32c-7.26,1.21 -4.35,-0.7 -7.01,3.48 -14.39,35.85 -30.78,44.79 -40.49,96.96 -13,69.9 10.83,159.32 64.62,201.83 40.74,32.19 48.73,26.85 106.82,33.36 60.45,-19.01 120.65,-185.49 34.88,-289.82 -14.4,-17.51 -49.39,-55.32 -88.85,-53.23l-28.66 -0.42 5.3 18.41c-25.16,-1.22 -2.61,-13.21 -24,-16.22 -3.28,2.04 5.7,3.22 -8.68,3.82 -13.79,0.58 -7.52,1.53 -14.27,-4.49z"/>
   <path class="fil2" d="M476.53 370.22c7.94,-11.63 -1.05,1.82 33.36,22.88 15.01,9.18 31.08,14.2 50.72,18.02 37.51,7.28 84.76,2.88 119.74,-6.84 132.49,-36.8 140.47,-101.21 153.45,-115.94 -40.74,-114.83 -257.61,-151.57 -337.37,-48.63 -21.34,27.55 -49.29,90.1 -19.9,130.51z"/>
   <path class="fil1" d="M507.13 536.28c-180.05,37.78 -121.74,297.75 54.09,261.98 68.09,-13.84 125.24,-77.36 107.58,-158.47 -14.45,-66.38 -79.93,-120.67 -161.67,-103.51z"/>
   <path class="fil1" d="M476.53 370.22c11.21,67.86 126.32,127.82 228.13,112.02 49,-7.59 92.56,-34.51 112.14,-60.12 26.55,-34.71 41,-84.44 17,-133.78 -12.98,14.73 -20.96,79.14 -153.45,115.94 -34.98,9.72 -82.23,14.12 -119.74,6.84 -19.64,-3.82 -35.71,-8.84 -50.72,-18.02 -34.41,-21.06 -25.42,-34.51 -33.36,-22.88z"/>
   <path class="fil3" d="M243.34 225.32l-0.34 -6.32c13.08,-8.25 12.62,-10.42 24.21,-18.45l-8.71 -30.6 7.99 -3.53c-14.42,-64.39 -74.22,-121.05 -142.37,-130.67 3.88,61.27 63.94,130.55 97.72,143.65 -55.38,-4.08 -141.57,-17.16 -202.2,23.51l-19.64 16.78c10.51,13.2 32.48,20.16 49.89,24.48 23.42,5.82 46.26,7.72 70.61,7.31 52.21,-0.89 81.93,-11.37 122.84,-26.16z"/>
   <path class="fil0" d="M367.28 560.95c-58.09,-6.51 -66.08,-1.17 -106.82,-33.36 -53.79,-42.51 -77.62,-131.93 -64.62,-201.83 9.71,-52.17 26.1,-61.11 40.49,-96.96 -110.41,57.97 -118.98,264.92 2.06,336.28 28.23,16.64 66.78,22.33 100.47,11.09l28.42 -15.22z"/>
   <path class="fil4" d="M577.1 685.89c-60.51,25.52 -33.12,102.77 26.55,82.45 20.48,-6.97 37.98,-27.29 31.89,-56.76 -5.1,-24.67 -32.9,-36.45 -58.44,-25.69z"/>
   <path class="fil4" d="M488.79 367.21c33.35,2.24 43.62,-13.31 43.62,-47.99 0,-96.26 -97.23,-37.51 -43.62,47.99z"/>
   <path class="fil5" d="M243 219c6.75,6.02 0.48,5.07 14.27,4.49 14.38,-0.6 5.4,-1.78 8.68,-3.82 21.39,3.01 -1.16,15 24,16.22l-5.3 -18.41 28.66 0.42c-2.51,-7.32 -23.27,-5.01 -31.4,-5.59l-15.42 -45.89 -7.99 3.53 8.71 30.6c-11.59,8.03 -11.13,10.2 -24.21,18.45z"/>
  </g>
 </g>
</svg>
