<svg xmlns="http://www.w3.org/2000/svg" viewBox="0 0 64 64"><path data-name="layer2" d="M45.22 34.918l-3.079-.018c-3.576.346-7.151 1.969-10.727 1.969-4 0-6-2.045-10-2.045s-6 2.045-10 2.045-8.731-2.211-8.731-2.211l-.7 8.2a20.327 20.327 0 0 0 8 2.046c4 0 6-2.046 10-2.046s6 2.046 10 2.046 8-2.046 12-2.046 8.681 1.342 11.342 2.027c4.692 1.209 6.479-2.029 6.661-4.029.056-.615.281-2.932.544-5.844-6.364 4.554-8.739.571-15.31-.094zm-1.235-16.061c-4 0-8 2.046-12 2.046s-6-2.046-10-2.046-6 2.046-10 2.046a20.327 20.327 0 0 1-8-2.046l-.655 8.02a20.956 20.956 0 0 0 8.083 2.047c3.8 0 5.819-1.832 9.447-2.012H22c3.605.191 5.619 2.01 9.411 2.01 3.568 0 7.137-1.619 10.705-1.971l3.009.005c6.744.625 9.735 4.612 16.134.032.4-4.4.725-8.137.725-8.137-6.916 4.949-9.997.006-17.999.006z" fill="#f27e7c"></path><path data-name="layer1" d="M45.127 26.958l-3.009-.005c-3.568.352-7.137 1.971-10.705 1.971-3.792 0-5.806-1.818-9.411-2.01h-1.14c-3.628.179-5.643 2.012-9.447 2.012a20.956 20.956 0 0 1-8.083-2.047l-.649 7.781s4.731 2.211 8.731 2.211 6-2.045 10-2.045 6 2.045 10 2.045c3.576 0 7.151-1.624 10.727-1.969l3.079.018c6.571.666 8.947 4.648 15.312.094l.729-8.022c-6.399 4.578-9.39.591-16.134-.034z" fill="#f8aead"></path></svg>