<svg xmlns="http://www.w3.org/2000/svg" viewBox="0 0 64 64"><path data-name="layer2" d="M6.532 62.73a1 1 0 0 1-.862-1.506l5.736-9.779a1 1 0 0 1 1.619-.149l7.182 8.287a1 1 0 0 1-1.507 1.31l-6.268-7.234L7.4 62.235a1 1 0 0 1-.868.495zm53.977-42.551a1 1 0 0 1-.654-.244l-8.287-7.18a1 1 0 0 1 .149-1.618L61.494 5.4a1 1 0 0 1 1.012 1.725l-8.575 5.031 7.233 6.267a1 1 0 0 1-.655 1.756z" fill="#be4444"></path><path data-name="layer1" d="M13.764 14.021C-.018 27.8.086 43.423 5.086 48.718s11.066 4.088 14.742-3.118.621-12.24 6.945-18.566 14.7-4.2 19.027-6.344 10.158-7.84 2.66-15.34-26.025-.003-34.696 8.671z" fill="#d45e5e"></path></svg>