<?xml version="1.0" encoding="UTF-8"?>
<!DOCTYPE svg PUBLIC "-//W3C//DTD SVG 1.1//EN" "http://www.w3.org/Graphics/SVG/1.1/DTD/svg11.dtd">
<!-- Creator: CorelDRAW 2020 (64-Bit) -->
<svg xmlns="http://www.w3.org/2000/svg" xml:space="preserve" width="846px" height="846px" version="1.1" style="shape-rendering:geometricPrecision; text-rendering:geometricPrecision; image-rendering:optimizeQuality; fill-rule:evenodd; clip-rule:evenodd"
viewBox="0 0 846 846"
 xmlns:xlink="http://www.w3.org/1999/xlink"
 xmlns:xodm="http://www.corel.com/coreldraw/odm/2003">
 <defs>
  <style type="text/css">
   <![CDATA[
    .fil2 {fill:#120100}
    .fil1 {fill:#471800}
    .fil0 {fill:#7B430B}
   ]]>
  </style>
 </defs>
 <g id="Capa_x0020_1">
  <metadata id="CorelCorpID_0Corel-Layer"/>
  <g id="_3141755322816">
   <path class="fil0" d="M451.2 658.41c0.14,0.52 12.93,-0.09 -8.55,18.93l-8.55 -12.26c-5.64,-4.88 -6.52,29.92 -2.57,-3.11 1.45,-12.13 12.36,-8.08 19.67,-3.56zm12.98 -40.59c17.4,-2.15 30.26,21.09 -6.76,19.28 -3.8,-34.83 -2.84,-9.2 6.76,-19.28zm302.11 27.67c-2.33,-39.54 -9.41,-21.74 15.81,-34.57l-2 35.04c-8.37,-6.5 -4.47,2.69 -2.98,-20.09l-10.83 19.62zm-357.2 -49.17c4.14,-1.44 1.21,-4.33 22.91,-6.72 12.57,16.85 11.91,28.14 10.61,44.3 -15.56,5.76 2.52,5.56 -13.98,2.83l-14.54 -7.72c-0.47,-0.17 -2.13,-0.77 -3.05,-1.42l-1.95 -31.27zm254.25 -155.64c12.27,-16.68 -0.78,-7.96 20.05,-11.1 9.04,16.37 4.32,4.13 5.37,27.03 -38.38,-37.58 -21.87,14.17 -25.42,-15.93zm22.76 -19.39c16.2,-15.81 -1.99,-3.03 8.41,-5.83l9.33 -0.4c-3.82,-2.34 -13.19,-6.44 -13.64,-7.12 -0.17,-0.27 -1.15,-1.43 -1.17,-1.73 -0.01,-0.3 -0.21,-1.77 -0.04,-2.1l16.01 -8.77 1.72 26.98 -20.62 -1.03zm-20.34 -55.74c23.32,37.12 2.07,30.13 -5.03,32.59 -3.48,-9.41 4.64,-4.12 0,-18.92 -13.42,7.07 -3.46,0.1 -9.25,17.29 -7.29,-19.23 -16.38,-27.22 14.28,-30.96zm-188.25 -73.81c0.56,-1.47 0.74,-5.45 1.2,-4.55 0.92,1.77 -3.42,-7.31 17.13,-15.73 1.14,1.35 3.06,1.4 3.5,3.99 0.43,2.44 2.64,2.86 3.12,3.93 1.12,2.53 4.18,9.49 3.82,11.96 -3.26,23.19 -2.73,11 -25.75,14.25 1.45,-1.47 3.85,-5.55 4.44,-4.31 0.05,0.1 9.15,-5.51 6.71,-14.89l-14.17 5.35zm-60.71 -160.11c4.01,110.23 -7.11,233.84 -9.66,346.23 -1.37,60.45 -15.46,304.98 -6.56,340.49 92.67,63.11 373.33,6.63 433.97,-54.1 4.23,-9.58 -59.47,-214.86 -67.2,-244.2 -16.23,-61.55 -104.49,-390.6 -117.26,-412.42 -63.8,12.61 -119.51,46.17 -233.29,24z"/>
   <path class="fil0" d="M331.32 738.56c0.25,13.56 6.81,2.87 2.19,0.6 -0.04,-0.02 -2.34,-8.25 -2.19,-0.6zm4.94 -15.29c0.2,0.36 21.09,-6.58 0,24.79 -14.03,-7.15 -20.69,-8.5 0,-24.79zm15.95 -1.07c-24.63,-13.78 -13.19,-24.05 -4.51,-25.72 34.73,-6.66 4.65,25.13 4.51,25.72zm-0.96 -16.38c-12.27,5.34 -9.05,-1.91 -2.99,12.14l2.99 -12.14zm-233.08 -84.47c-21.42,-10.9 -14.79,-29.83 0.69,-29.69 15.3,0.14 20.28,18.49 -0.69,29.69zm-24.68 -63.44c9.52,0.45 6.46,-1.87 7.77,8.43l-2.78 19.66 -5.16 3.8 -8.14 -4.29c-10.04,0 -6.72,1.95 -5.3,-9.66l-1.05 0.12c-2.87,-14.23 -2.65,-19.08 14.66,-18.06zm195.86 -154.92c0.86,-17.75 -2.55,-28.93 20.31,-31.91 8.07,13.74 5.08,9.92 2.8,31.4 -1.19,-1.43 -2.76,-3.34 -3.43,-4.39l-4.68 -12.99c-14.51,5.4 -0.93,1.81 -15,17.89zm64.54 -13.47c-9.75,-1.72 -5.42,19.27 -5.68,-3.13 -0.14,-12.45 -2.92,-4.22 9.33,-11.91 6.24,10.69 8.78,2.35 3.32,14.52 -7.74,17.27 0.66,1.86 -6.97,0.52zm1.99 -71.15c1.94,16.37 -3.96,20.58 -15.74,29.14 -13.5,-5.62 -21.28,-17.31 -15.98,-34.71 2.51,-8.22 -3.69,-17.35 25.41,-9.05 4.87,9.05 3.28,-10.92 6.31,14.62zm-19.62 -1.43c-2.86,3.52 -9.47,-14.18 -4.35,11.28 3.65,18.21 -2.5,4.77 11.7,12.73 0.71,-17.29 5.17,-18.73 -7.35,-24.01zm-127.91 -237.75c1.35,16.66 5.02,23.03 -8.06,35.41 -10.74,10.16 10.6,-3.64 -9.65,4.04 -0.46,-1.5 -1.31,-3.22 -1.64,-4.39 -11.29,-40.69 5.5,-31.19 19.35,-35.06zm-13.37 28.98c7.93,-8.51 3.16,2.48 2.84,-10.14l-2.16 7.6 -0.68 2.54zm212.97 -57.84c-113.02,3.25 -125.98,6.71 -225.95,-27.82l-130.85 494.89c-9.93,36.7 -41.73,142.92 -39.81,173.27 98.13,53.67 247.8,88.5 364.93,61.81l13.69 -315.26c3.35,-126.1 2.46,-262.35 17.99,-386.89z"/>
   <path class="fil0" d="M182.66 23.98c11.44,48.06 198.9,72.49 226.28,25.32 -21.31,-43 -185.54,-72.25 -226.28,-25.32z"/>
   <path class="fil0" d="M415.99 132.81c47.53,43.37 236.66,24.4 234.1,-25.18 -36.85,-32.24 -212.2,-32.02 -234.1,25.18z"/>
   <path class="fil1" d="M411.04 627.59c0.92,0.65 2.58,1.25 3.05,1.42l14.54 7.72c16.5,2.73 -1.58,2.93 13.98,-2.83 1.3,-16.16 1.96,-27.45 -10.61,-44.3 -21.7,2.39 -18.77,5.28 -22.91,6.72l1.95 31.27z"/>
   <path class="fil1" d="M343.61 340.95c-14.2,-7.96 -8.05,5.48 -11.7,-12.73 -5.12,-25.46 1.49,-7.76 4.35,-11.28 12.52,5.28 8.06,6.72 7.35,24.01zm-3.47 6.56c11.78,-8.56 17.68,-12.77 15.74,-29.14 -3.03,-25.54 -1.44,-5.57 -6.31,-14.62 -29.1,-8.3 -22.9,0.83 -25.41,9.05 -5.3,17.4 2.48,29.09 15.98,34.71z"/>
   <path class="fil1" d="M194.98 108.17l0.68 -2.54 2.16 -7.6c0.32,12.62 5.09,1.63 -2.84,10.14zm-4.34 10.47c20.25,-7.68 -1.09,6.12 9.65,-4.04 13.08,-12.38 9.41,-18.75 8.06,-35.41 -13.85,3.87 -30.64,-5.63 -19.35,35.06 0.33,1.17 1.18,2.89 1.64,4.39z"/>
   <path class="fil1" d="M665.76 365.55c-30.66,3.74 -21.57,11.73 -14.28,30.96 5.79,-17.19 -4.17,-10.22 9.25,-17.29 4.64,14.8 -3.48,9.51 0,18.92 7.1,-2.46 28.35,4.53 5.03,-32.59z"/>
   <path class="fil1" d="M491.68 286.39c2.44,9.38 -6.66,14.99 -6.71,14.89 -0.59,-1.24 -2.99,2.84 -4.44,4.31 23.02,-3.25 22.49,8.94 25.75,-14.25 0.36,-2.47 -2.7,-9.43 -3.82,-11.96 -0.48,-1.07 -2.69,-1.49 -3.12,-3.93 -0.44,-2.59 -2.36,-2.64 -3.5,-3.99 -20.55,8.42 -16.21,17.5 -17.13,15.73 -0.46,-0.9 -0.64,3.08 -1.2,4.55l14.17 -5.35z"/>
   <path class="fil1" d="M118.17 621.35c20.97,-11.2 15.99,-29.55 0.69,-29.69 -15.48,-0.14 -22.11,18.79 -0.69,29.69z"/>
   <path class="fil1" d="M78.83 575.97l1.05 -0.12c-1.42,11.61 -4.74,9.66 5.3,9.66l8.14 4.29 5.16 -3.8c2.3,-22.15 -6.11,-23.16 2.78,-19.66 -1.31,-10.3 1.75,-7.98 -7.77,-8.43l-5.77 2.42c-0.59,0.52 -2.13,1.72 -2.7,2.32 -6.92,7.43 -11.05,-11.94 -6.19,13.32z"/>
   <path class="fil1" d="M289.35 402.99c14.07,-16.08 0.49,-12.49 15,-17.89l4.68 12.99c0.67,1.05 2.24,2.96 3.43,4.39 2.28,-21.48 5.27,-17.66 -2.8,-31.4 -22.86,2.98 -19.45,14.16 -20.31,31.91z"/>
   <path class="fil1" d="M348.26 717.96c-6.06,-14.05 -9.28,-6.8 2.99,-12.14l-2.99 12.14zm3.95 4.24c0.14,-0.59 30.22,-32.38 -4.51,-25.72 -8.68,1.67 -20.12,11.94 4.51,25.72z"/>
   <path class="fil1" d="M782.1 610.92c-25.22,12.83 -18.14,-4.97 -15.81,34.57l10.83 -19.62c-1.49,22.78 -5.39,13.59 2.98,20.09l2 -35.04z"/>
   <path class="fil1" d="M457.42 637.1c37.02,1.81 24.16,-21.43 6.76,-19.28 -9.6,10.08 -10.56,-15.55 -6.76,19.28z"/>
   <path class="fil1" d="M683.39 429.58c-20.83,3.14 -7.78,-5.58 -20.05,11.1 3.55,30.1 -12.96,-21.65 25.42,15.93 -1.05,-22.9 3.67,-10.66 -5.37,-27.03z"/>
   <path class="fil1" d="M331.32 738.56c-0.15,-7.65 2.15,0.58 2.19,0.6 4.62,2.27 -1.94,12.96 -2.19,-0.6zm4.94 9.5c21.09,-31.37 0.2,-24.43 0,-24.79 -20.69,16.29 -14.03,17.64 0,24.79z"/>
   <path class="fil1" d="M451.2 658.41c-7.31,-4.52 -18.22,-8.57 -19.67,3.56 -3.95,33.03 -3.07,-1.77 2.57,3.11l8.55 12.26c21.48,-19.02 8.69,-18.41 8.55,-18.93z"/>
   <path class="fil1" d="M706.72 422.32l-1.72 -26.98 -16.01 8.77c-0.17,0.33 0.03,1.8 0.04,2.1 0.02,0.3 1,1.46 1.17,1.73 0.45,0.68 9.82,4.78 13.64,7.12l-9.33 0.4c-10.4,2.8 7.79,-9.98 -8.41,5.83l20.62 1.03z"/>
   <path class="fil1" d="M357.54 374.48c-12.25,7.69 -9.47,-0.54 -9.33,11.91 0.26,22.4 -4.07,1.41 5.68,3.13 7.63,1.34 -0.77,16.75 6.97,-0.52 5.46,-12.17 2.92,-3.83 -3.32,-14.52z"/>
   <path class="fil2" d="M78.83 575.97l1.05 -0.12 -1.05 0.12c-4.86,-25.26 -0.73,-5.89 6.19,-13.32 0.57,-0.6 2.11,-1.8 2.7,-2.32l5.77 -2.42c-17.31,-1.02 -17.53,3.83 -14.66,18.06zm19.65 10.03l-5.16 3.8 5.16 -3.8 2.78 -19.66c-8.89,-3.5 -0.48,-2.49 -2.78,19.66z"/>
  </g>
 </g>
</svg>
