<?xml version="1.0" encoding="UTF-8"?>
<!DOCTYPE svg PUBLIC "-//W3C//DTD SVG 1.1//EN" "http://www.w3.org/Graphics/SVG/1.1/DTD/svg11.dtd">
<!-- Creator: CorelDRAW 2020 (64-Bit) -->
<svg xmlns="http://www.w3.org/2000/svg" xml:space="preserve" width="846px" height="846px" version="1.1" style="shape-rendering:geometricPrecision; text-rendering:geometricPrecision; image-rendering:optimizeQuality; fill-rule:evenodd; clip-rule:evenodd"
viewBox="0 0 846 846"
 xmlns:xlink="http://www.w3.org/1999/xlink"
 xmlns:xodm="http://www.corel.com/coreldraw/odm/2003">
 <defs>
  <style type="text/css">
   <![CDATA[
    .fil1 {fill:#F2CD8C}
    .fil0 {fill:#F9DEB1}
   ]]>
  </style>
 </defs>
 <g id="Capa_x0020_1">
  <metadata id="CorelCorpID_0Corel-Layer"/>
  <g id="_3141761966848">
   <path class="fil0" d="M634.64 719.91c61.84,-65.22 136.34,-35.83 135.21,-134.63 6.1,-18 3.45,-50.33 -0.6,-68.74 -8.17,-37.06 -0.8,-14.52 11.71,-58.75 12.31,-43.48 7.12,-90.62 -11.29,-127.58 -0.57,-32.33 -0.4,-57.09 0.19,-76.07 6.37,-203.27 -258.5,-11.49 -184.56,-130.25 -21.78,-59.39 -91.7,-117.53 -179.6,-108.53 -60,6.15 -51.79,29.2 -82.12,9.51 -6.76,-4.39 -16.45,-9.11 -24.27,-12.19 -118.06,-46.58 -245.27,40.86 -240.51,169.59 1.8,48.75 27.47,98.51 58.79,123.38 24.17,19.2 -2.96,31.03 -13.06,42.86 -46.41,54.33 -60.33,122.25 -29.81,191.55 14.51,32.96 21.01,17.54 3.56,50.22 -43.16,80.84 -9.88,169.24 39.31,211.43 24.77,21.24 55.98,39.45 99.91,43.54 22.93,2.13 44.71,-0.35 65.45,-6.48 23.03,-6.81 46.86,-21.87 51.2,-22.28 13.46,-1.3 50.93,33.24 121.8,28.09 270.29,-9.24 143.77,-87.84 178.69,-124.67z"/>
   <ellipse class="fil1" cx="279.42" cy="290.56" rx="16.41" ry="17.32"/>
   <ellipse class="fil1" cx="297.66" cy="290.56" rx="16.41" ry="17.32"/>
   <ellipse class="fil1" cx="297.66" cy="308.8" rx="16.41" ry="17.32"/>
   <ellipse class="fil1" cx="443.55" cy="144.67" rx="16.41" ry="17.32"/>
   <ellipse class="fil1" cx="184.59" cy="476.57" rx="16.41" ry="17.32"/>
   <ellipse class="fil1" cx="649.63" cy="237.67" rx="16.41" ry="17.32"/>
   <ellipse class="fil1" cx="633.21" cy="252.26" rx="16.41" ry="17.32"/>
   <ellipse class="fil1" cx="363.31" cy="657.12" rx="16.41" ry="17.32"/>
   <ellipse class="fil1" cx="664.22" cy="368.98" rx="16.41" ry="17.32"/>
   <ellipse class="fil1" cx="419.85" cy="441.92" rx="16.41" ry="17.32"/>
   <ellipse class="fil1" cx="184.59" cy="99.08" rx="16.41" ry="17.32"/>
   <ellipse class="fil1" cx="190.06" cy="768.36" rx="16.41" ry="17.32"/>
   <ellipse class="fil1" cx="616.8" cy="575.05" rx="16.41" ry="17.32"/>
  </g>
 </g>
</svg>
