<?xml version="1.0" encoding="UTF-8"?>
<!DOCTYPE svg PUBLIC "-//W3C//DTD SVG 1.1//EN" "http://www.w3.org/Graphics/SVG/1.1/DTD/svg11.dtd">
<!-- Creator: CorelDRAW 2020 (64-Bit) -->
<svg xmlns="http://www.w3.org/2000/svg" xml:space="preserve" width="846px" height="846px" version="1.1" style="shape-rendering:geometricPrecision; text-rendering:geometricPrecision; image-rendering:optimizeQuality; fill-rule:evenodd; clip-rule:evenodd"
viewBox="0 0 846 846"
 xmlns:xlink="http://www.w3.org/1999/xlink"
 xmlns:xodm="http://www.corel.com/coreldraw/odm/2003">
 <defs>
  <style type="text/css">
   <![CDATA[
    .str0 {stroke:black;stroke-width:2.36;stroke-miterlimit:22.9256}
    .fil2 {fill:black}
    .fil0 {fill:#1A1A1A}
    .fil3 {fill:#3C6826}
    .fil1 {fill:#730A03}
   ]]>
  </style>
 </defs>
 <g id="Capa_x0020_1">
  <metadata id="CorelCorpID_0Corel-Layer"/>
  <g id="_2134687671056">
   <polygon class="fil0" points="46.03,1.25 45.32,846 795.57,842.47 800.68,0 "/>
   <polygon class="fil1" points="685.11,585.62 692.82,0.04 163.44,1.44 162.14,585.77 "/>
   <path class="fil2 str0" d="M215.33 97.28c151.03,-28.83 296.24,-23.65 438.28,0 13.64,68.92 16.51,133.52 0,191.74 -149.1,26.19 -295.4,27.87 -438.28,0 -27.69,-64.26 -30.29,-128.21 0,-191.74z"/>
   <path class="fil3" d="M570.57 142.4c-17.58,-9.21 -92.67,-88.24 -85.88,-31.43 3.55,29.72 36.01,32.31 80,41.46 -34.02,44.56 -94.82,-4.99 -73.72,64.85 52.11,11.41 23.46,-16.54 75.9,-42.39 -0.63,35.7 -28.14,74.48 31.96,68.47 14.41,-36.6 0.28,-25.99 -6.91,-77.52 43,15.82 59.97,70.28 85.38,45.46 46.02,-44.99 -61.63,-43.4 -82.54,-59.42 3.44,-3.28 6.94,-5.81 10.5,-7.8 31.49,-17.66 74.74,0.19 60.79,-45.8 -14.78,-48.78 -49.82,27.45 -79.38,40.27 0.03,-23.32 16.56,-123.06 -33.09,-95.57 -32.12,17.79 13.31,51.23 16.99,99.42z"/>
  </g>
 </g>
</svg>
