<?xml version="1.0" encoding="UTF-8"?>
<!DOCTYPE svg PUBLIC "-//W3C//DTD SVG 1.1//EN" "http://www.w3.org/Graphics/SVG/1.1/DTD/svg11.dtd">
<!-- Creator: CorelDRAW 2020 (64-Bit) -->
<svg xmlns="http://www.w3.org/2000/svg" xml:space="preserve" width="846px" height="846px" version="1.1" style="shape-rendering:geometricPrecision; text-rendering:geometricPrecision; image-rendering:optimizeQuality; fill-rule:evenodd; clip-rule:evenodd"
viewBox="0 0 846 846"
 xmlns:xlink="http://www.w3.org/1999/xlink"
 xmlns:xodm="http://www.corel.com/coreldraw/odm/2003">
 <defs>
  <style type="text/css">
   <![CDATA[
    .fil0 {fill:#572A1A}
   ]]>
  </style>
 </defs>
 <g id="Capa_x0020_1">
  <metadata id="CorelCorpID_0Corel-Layer"/>
  <path class="fil0" d="M603.33 740.98c11.81,-36.09 29.7,-72.8 68.93,-94.56l32.16 -3.23c26.41,8.94 21.78,39.78 10.26,63.83 -15.42,32.19 -20.74,23.93 -34.02,41.31l55.14 23.58c-11.56,-27.96 -2.21,-57.94 10.7,-79.45 6.15,-10.24 13.82,-18.99 20.28,-26.45 14,-16.14 10.33,-13.66 35.86,-22.7 -131.52,-50.83 -179.39,-60.38 -276.61,-155.68l-79.36 -70.83c45.75,19.42 267.44,168.58 308.48,184.86 -14.32,-56.46 -2.72,-72.89 32.64,-89.64 -1.16,-22.52 -8.15,-38.63 14.48,-68.86l11.95 -12.63c0.9,-0.87 2.67,-2.43 3.42,-3.13 0.77,-0.72 2.41,-2.04 3.53,-3.14l-173.35 -88.15c-59.24,-32.19 -111.14,-56.93 -169.49,-88.66l-346.44 -178.32c-33.68,22.9 -23.21,26.01 -35.22,53.07 -27.11,-1.91 -38.29,1.44 -56.27,16.55 -47.97,40.35 7.09,74.08 64.62,130.1l118.58 110.46c15.82,15.15 22.46,26.79 40.77,44.72 -69.05,-18.67 -189.97,-87.07 -221.54,-77.4 -24.09,7.38 -41.63,33.36 -42.83,65.59 8.08,27.1 391.8,201.9 462.7,233.12 77.58,34.16 90.06,55.92 140.63,95.64zm151.82 -139.32c32.56,27.64 65.14,-45.09 75.27,-66.57 8.33,-17.63 14.88,-36.77 15.48,-58.74 0.97,-35.58 -4.81,-39.08 -24.73,-52.09 -1.12,1.1 -2.76,2.42 -3.53,3.14 -0.75,0.7 -2.52,2.26 -3.42,3.13l-11.95 12.63c-22.63,30.23 -15.64,46.34 -14.48,68.86 -35.36,16.75 -46.96,33.18 -32.64,89.64zm-151.82 139.32c26.91,43.39 47.13,13.76 77.33,7.35 13.28,-17.38 18.6,-9.12 34.02,-41.31 11.52,-24.05 16.15,-54.89 -10.26,-63.83l-32.16 3.23c-39.23,21.76 -57.12,58.47 -68.93,94.56zm132.47 30.93c38.04,15.4 60.16,-7.43 77.61,-36.25 17.5,-28.92 29.03,-74.34 -10.77,-92.35 -25.53,9.04 -21.86,6.56 -35.86,22.7 -6.46,7.46 -14.13,16.21 -20.28,26.45 -12.91,21.51 -22.26,51.49 -10.7,79.45zm76.36 -288.15c5.73,-14.49 -1.56,-2.15 6.62,-11.36 9.16,39.46 -12.61,28.54 -21.29,67.5 -2.03,9.09 -8,31.89 -10.65,11.41 -3.55,-18.04 10.32,-3.49 -9.22,-16.93 -16.37,18.52 -16.72,24.38 -12.59,54.8 46.33,-9.57 75.67,-96.16 71.92,-123.68 -0.92,-6.76 -0.65,-4.98 -2.4,-9.93 -3.05,-8.62 -4.69,-7.97 -7.34,-11.59 -40.16,1.81 -39.14,100.71 -15.05,39.78zm-178.43 265.6c10.55,1.97 18.92,3.78 29.86,-4.9 9.97,-7.91 4.09,0.32 0.59,-12.05 -6.22,-21.95 26.45,-16.12 26.4,-51.16 -26.08,-12.88 -28.63,6.03 -38.54,22.53 -12.64,21.05 -26.02,19.18 -18.31,45.58zm137.27 -8.36c7.74,-18.35 33.25,-28.01 30.11,-56.82 -27.85,-1.78 -39.33,33.22 -43.52,59.83 -8,50.82 78.99,-16.69 13.41,-3.01z"/>
 </g>
</svg>
