<?xml version="1.0" encoding="UTF-8"?>
<!DOCTYPE svg PUBLIC "-//W3C//DTD SVG 1.1//EN" "http://www.w3.org/Graphics/SVG/1.1/DTD/svg11.dtd">
<!-- Creator: CorelDRAW 2020 (64-Bit) -->
<svg xmlns="http://www.w3.org/2000/svg" xml:space="preserve" width="846px" height="846px" version="1.1" style="shape-rendering:geometricPrecision; text-rendering:geometricPrecision; image-rendering:optimizeQuality; fill-rule:evenodd; clip-rule:evenodd"
viewBox="0 0 846 846"
 xmlns:xlink="http://www.w3.org/1999/xlink"
 xmlns:xodm="http://www.corel.com/coreldraw/odm/2003">
 <defs>
  <style type="text/css">
   <![CDATA[
    .fil0 {fill:#CED7DB}
    .fil2 {fill:#EED09D}
    .fil1 {fill:#FECF73}
    .fil3 {fill:white}
   ]]>
  </style>
 </defs>
 <g id="Capa_x0020_1">
  <metadata id="CorelCorpID_0Corel-Layer"/>
  <path class="fil0" d="M151.62 309.93c-4.24,29.4 -69.49,123.79 -85.4,163.44 94.05,66.3 462.73,31.53 451.5,-126.48 -26.41,-20.66 -178.92,-89.86 -193.7,-110.38 -31.73,-3.78 -81.74,-67.62 -112.06,-38.86l-58.01 109.6c-0.49,0.6 -1.62,1.74 -2.33,2.68z"/>
  <path class="fil1" d="M564.34 299.73c8.97,33.92 22.38,56.61 10.05,97.9 -45.46,152.29 -325.35,196.79 -481.42,153.73 -30.32,-8.37 -55.06,-25.74 -78.3,-32.16 13.95,23.32 36.48,45.29 58.2,61.59 137.16,102.93 330.29,97.66 447.49,-2.09 44.83,-38.15 64.98,-86.43 71.31,-167.32 39.12,-5.66 86.76,-18.28 127.75,-26.77 26.43,-5.49 122.28,-19.33 126.58,-33.26l-0.01 -141.62 -281.65 90z"/>
  <path class="fil2" d="M324.02 236.51c14.78,20.52 167.29,89.72 193.7,110.38 11.23,158.01 -357.45,192.78 -451.5,126.48 15.91,-39.65 81.16,-134.04 85.4,-163.44 -20.15,11.09 -39.76,25.98 -55.01,39.17 -19.91,17.21 -34.47,26.22 -50.08,44.85 -26.22,31.3 -69.35,76.3 -31.86,125.25 23.24,6.42 47.98,23.79 78.3,32.16 156.07,43.06 435.96,-1.44 481.42,-153.73 12.33,-41.29 -1.08,-63.98 -10.05,-97.9 -24.92,-24.67 -31.24,-47.49 -93.08,-63.6 -61.72,-16.09 -91.09,-0.57 -147.24,0.38z"/>
  <path class="fil3" d="M256.23 333.27c18.33,-22.41 -32.32,-43.82 -39.98,-15.31 -4.68,17.38 14.43,42.4 39.98,15.31z"/>
  <path class="fil3" d="M295.48 354.07c-26.06,-1.8 -27.94,17.36 -19.48,30.93 26.31,42.19 63.29,-27.91 19.48,-30.93z"/>
  <path class="fil3" d="M194.54 387.75c-15.89,15.62 1.65,33.35 29.08,29.67 22.78,-25.29 7,-43.77 -14.63,-36.89 -7.77,2.48 -8.52,1.38 -14.45,7.22z"/>
 </g>
</svg>
