<?xml version="1.0" encoding="UTF-8"?>
<!DOCTYPE svg PUBLIC "-//W3C//DTD SVG 1.1//EN" "http://www.w3.org/Graphics/SVG/1.1/DTD/svg11.dtd">
<!-- Creator: CorelDRAW 2020 (64-Bit) -->
<svg xmlns="http://www.w3.org/2000/svg" xml:space="preserve" width="846px" height="846px" version="1.1" style="shape-rendering:geometricPrecision; text-rendering:geometricPrecision; image-rendering:optimizeQuality; fill-rule:evenodd; clip-rule:evenodd"
viewBox="0 0 846 846"
 xmlns:xlink="http://www.w3.org/1999/xlink"
 xmlns:xodm="http://www.corel.com/coreldraw/odm/2003">
 <defs>
  <style type="text/css">
   <![CDATA[
    .fil0 {fill:#7CAA20}
   ]]>
  </style>
 </defs>
 <g id="Capa_x0020_1">
  <metadata id="CorelCorpID_0Corel-Layer"/>
  <path class="fil0" d="M161.06 326.02c-11.15,-3.32 -16.92,-5.88 -30.68,-5.02 -16.87,1.06 -20.38,4.41 -39.99,2.63 -29.68,-2.69 -49.19,-2.53 -78.61,-1.63l-11.78 4.62 0.37 15.24c20.02,7.2 77.82,4.25 104.14,7.82 -10.19,6.68 -26.04,11.79 -36.06,17.75 -11,6.54 -25.07,17.27 -32.27,25.5 -9.55,10.93 -44.55,56.59 -32.88,76.32 10.19,10.18 152.13,24.62 153.02,-115.08l96.86 11.74c13.43,3.74 20.89,7.07 34.86,9.72 8.82,1.68 5.77,0.43 13.49,2.2 10.05,2.29 7.53,2.42 18.08,5.17l121.99 37.29c-9.04,8.16 -26.21,10.8 -38.09,15.01 -33.01,11.7 -74.7,38.64 -95.48,63.48 -14.95,17.87 -30.1,36.33 -42.42,62.13 -8.66,18.13 -33.78,63.32 -4.16,72.3 50.28,15.24 143.88,-9.06 176.65,-33.24 42.97,-31.72 64.45,-74.43 64.55,-149.54 31.88,9.39 99.21,58.24 110.69,62.08 0.89,0.73 2,1.6 2.69,2.15 0.66,0.55 1.81,1.45 2.61,2.1l35.1 28.25c40.64,23.56 135.84,132.49 139.33,134.91 20.71,14.34 49.99,-10.65 52.93,-30.54 -4.66,-25.83 -153,-128.86 -178.07,-148.05 7.38,-18.17 19.77,-20.73 32.83,-57.72 30.75,-87.13 -65.28,-170.42 -95.01,-169.85 -46.29,80.25 -8.56,145.5 11.77,196.49 -18.08,-7.47 -36.87,-19.57 -55.33,-29.11 -17.72,-9.16 -44.78,-17.2 -55.64,-29.24 -9.73,2.39 -25.99,-8.21 -36.4,-12.36 -10.48,-4.18 -25.17,-11.26 -37.17,-13.76l-109.61 -35.16c17.95,-56.45 31.42,-82.62 -4.67,-135.37 -13.7,-20.01 -70.29,-68.42 -105.2,-66.89 -23.11,33.74 -5.99,112.18 21.81,153.88 11.5,17.25 21.46,22.16 29.04,36.02 -33,-4.62 -69.35,-15.94 -103.29,-12.24zm271.92 59.76c12,2.5 26.69,9.58 37.17,13.76 10.41,4.15 26.67,14.75 36.4,12.36 26.35,-54.14 31.12,-112.51 -3.73,-164.14 -24.21,-35.86 -104.8,-93.43 -124.37,-83.65 -24.04,19.6 -8.67,103.46 -0.25,128.84 19.72,59.37 46.72,74.99 54.78,92.83zm-113.37 -2.78c-10.55,-2.75 -8.03,-2.88 -18.08,-5.17 -7.72,-1.77 -4.67,-0.52 -13.49,-2.2 -13.97,-2.65 -21.43,-5.98 -34.86,-9.72 -13.42,11.64 -63.59,21.03 -101.85,62.72 -8.43,9.18 -67.54,87.48 -48.84,107.37 20.21,27.71 130.74,-4.72 154.29,-19.88 41.95,-27 59.18,-64.82 62.83,-133.12zm334.13 162.01l-35.1 -28.25c-0.8,-0.65 -1.95,-1.55 -2.61,-2.1 -0.69,-0.55 -1.8,-1.42 -2.69,-2.15 -11.16,13.82 -23.3,9.03 -55.62,30.07 -35.27,22.96 -58.81,48.91 -75.96,90 -6.01,14.42 -22.34,47.91 -7.63,59.91 26.19,18.53 108.32,-17.63 127.49,-30.16 44.55,-29.11 42.57,-52.41 52.12,-117.32zm-641.96 -223.01c29.42,-0.9 48.93,-1.06 78.61,1.63 19.61,1.78 23.12,-1.57 39.99,-2.63 13.76,-0.86 19.53,1.7 30.68,5.02 6.7,-38.66 21.84,-63.56 -7.75,-97.12 -13.26,-15.03 -46.18,-44.74 -73.86,-44.84 -9.71,19.28 -6.48,53.62 0.1,75.38 8.23,27.28 23.26,40.09 34.71,60.3l-92.21 -1.45c-7.61,1.31 -6.29,0.74 -10.27,3.71z"/>
 </g>
</svg>
