<?xml version="1.0" encoding="UTF-8"?>
<!DOCTYPE svg PUBLIC "-//W3C//DTD SVG 1.1//EN" "http://www.w3.org/Graphics/SVG/1.1/DTD/svg11.dtd">
<!-- Creator: CorelDRAW 2020 (64-Bit) -->
<svg xmlns="http://www.w3.org/2000/svg" xml:space="preserve" width="846px" height="846px" version="1.1" style="shape-rendering:geometricPrecision; text-rendering:geometricPrecision; image-rendering:optimizeQuality; fill-rule:evenodd; clip-rule:evenodd"
viewBox="0 0 846 846"
 xmlns:xlink="http://www.w3.org/1999/xlink"
 xmlns:xodm="http://www.corel.com/coreldraw/odm/2003">
 <defs>
  <style type="text/css">
   <![CDATA[
    .fil1 {fill:#008700}
    .fil0 {fill:#5FA817}
    .fil2 {fill:#A3C200}
   ]]>
  </style>
 </defs>
 <g id="Capa_x0020_1">
  <metadata id="CorelCorpID_0Corel-Layer"/>
  <g id="_2134919878480">
   <path class="fil0" d="M405.77 668.97c15.56,-35.82 12.22,-36.57 3,-47.81 -19.67,-24 -24.9,-42.24 -29.23,-76.46 -23.92,11.13 -76.16,54.57 -92.81,73.21 -28.08,31.42 -44.86,72.1 -63.31,52.58 -9.56,-10.12 -0.3,-21.6 5.27,-29.73 23.85,-34.88 49.83,-60.35 80.31,-85.1 48.46,-39.35 62.23,-39.66 99.44,-64.55 -77.36,-24.07 -173.23,6.34 -219.36,67.78 -22.92,30.5 -37.48,57.1 -52.48,100.03 -14.5,41.52 -22.53,82.83 -23.93,130.32 37.34,-1.34 75.61,-4.27 112.19,-9.21 81.35,-10.99 145.28,-29.06 180.91,-111.06z"/>
   <path class="fil0" d="M814.6 432.79c8.72,-9.77 15.24,-17.65 22.46,-30.81 7.45,-13.59 14.55,-23.48 2.33,-35.09 -39.86,-37.85 -82.19,-55.03 -136.35,-57.66 -75.58,-3.67 -151.84,23.92 -210.62,62.35 3.2,6.85 7.91,13.33 11.33,20.43 3.76,7.8 5.54,16.35 10.07,23.27 13.38,-3.61 51.43,-25.46 108.1,-39.25 19.88,-4.84 40.76,-8.8 62.13,-11.48 17.93,-2.26 55.29,-11.31 53.96,13.63 -1.05,19.88 -36.8,15.81 -55.2,18.29 -39.9,5.37 -79.81,16.2 -116.47,30.69l-38.28 16.89c-7.03,3.31 -7.88,2.39 -8.65,9.57 3.36,2.85 -1.14,0.5 4.07,1.97 11.83,3.36 37.26,0.13 59.75,26.03 14.83,17.1 22.33,38.52 24.77,67.55 58.45,-2.5 170.84,-76.33 206.6,-116.38z"/>
   <path class="fil1" d="M311.21 275.85c16.44,1.98 33.75,6.7 49.35,11.32 15.92,4.72 31.17,12.34 45.31,16.11 3.11,-40.85 9.45,-84.18 16.73,-124.48 2.51,-13.91 6.48,-28.84 23.86,-21.77 12.85,5.23 8.03,21.25 5.57,34.57 -3.85,20.77 -18.82,119.97 -15.63,127.88l35.15 27.26c9.38,-3.84 23.38,-13.48 33.93,-19.17 12.49,-6.72 23.79,-11.61 36.68,-18.33 12.14,-72.65 2.12,-147.28 -36.96,-207.2 -9.59,-14.71 -27.49,-38.19 -39.16,-45.28 -34.48,12.4 -78.77,56 -100.49,85.07 -25.54,34.18 -48.1,80.64 -54.34,134.02z"/>
   <path class="fil1" d="M0 400.33c38.58,47.5 107.21,82.65 177.51,99.15 36.63,8.6 17.04,-1.1 75.09,-27.75 12.86,-5.9 30.92,-8.98 42.45,-14.43 -2.6,-7.01 -9.04,-15.71 -13.11,-23.58 -4.37,-8.47 -7.78,-16.82 -11.65,-24.83 -8.13,-7.69 -99.85,-7.1 -120.37,-6.27 -12.18,0.5 -26.68,3.46 -31.99,-7.12 -14.75,-29.41 38.44,-24.65 57.78,-24.73 28.84,-0.12 55.11,2.18 83.53,4.16l-9.4 -56.78c-62.5,-12.54 -152.02,4.16 -207.23,40.96 -13.28,8.86 -36.5,28.95 -42.61,41.22z"/>
   <path class="fil1" d="M657.88 568.35c19.78,16.06 46.77,43.34 58.84,66.45 6.4,12.27 -0.52,25.5 -13.53,24.81 -14.59,-0.77 -20.28,-26.13 -40.69,-44.1 -9.97,-8.79 -4.91,-6.58 -21.96,-20.34 -11.6,-9.36 -29.28,-25.84 -29.93,-3.83 -1.1,37.55 0.25,29.29 -4.39,73.45 36.55,29.82 98.84,42.1 148.29,40.75 1.21,-31.98 0.49,-61.34 -6.7,-90.98 -5.15,-21.24 -18.78,-55.87 -30.59,-68.14l-59.34 21.93z"/>
   <path class="fil2" d="M471.72 463.98l15.54 -6.5c7.11,-2.97 -2.61,-48.29 -12.02,-57.81 -24.87,-51.3 -136.91,-94.09 -194.57,-97.01 1.48,40.65 10.95,84.23 29.94,118.96 6.4,11.72 15.46,21.52 20.44,30.92 78.75,0.11 48.79,4.13 103.2,12.41 -5.87,-12.12 -31.56,-37.08 -42.38,-45.59 -9.31,-7.32 -15.26,-11.84 -25.79,-18.32 -8.18,-5.03 -20.44,-11.43 -13.4,-25.74 12.74,-25.86 66.6,25.17 78.82,37.53 3.51,3.55 37.63,50 40.22,51.15z"/>
   <path class="fil2" d="M568.61 694.07c18.95,-70.1 34.07,-201.07 -62.89,-204.71l-13.67 1.28c2.1,5.07 24.36,33.23 33.59,50.39 6.65,12.35 30.77,49.04 9.11,56.76 -14.91,5.31 -19.67,-6.71 -23.89,-16.26 -9.15,-20.77 -35.9,-68.31 -52.44,-76.89 -6.37,14.31 -19,25.1 -14.65,55.57 6.42,44.97 91.13,115.33 124.84,133.86z"/>
  </g>
 </g>
</svg>
