<?xml version="1.0" encoding="UTF-8"?>
<!DOCTYPE svg PUBLIC "-//W3C//DTD SVG 1.1//EN" "http://www.w3.org/Graphics/SVG/1.1/DTD/svg11.dtd">
<!-- Creator: CorelDRAW 2020 (64-Bit) -->
<svg xmlns="http://www.w3.org/2000/svg" xml:space="preserve" width="846px" height="846px" version="1.1" style="shape-rendering:geometricPrecision; text-rendering:geometricPrecision; image-rendering:optimizeQuality; fill-rule:evenodd; clip-rule:evenodd"
viewBox="0 0 846 846"
 xmlns:xlink="http://www.w3.org/1999/xlink"
 xmlns:xodm="http://www.corel.com/coreldraw/odm/2003">
 <defs>
  <style type="text/css">
   <![CDATA[
    .fil0 {fill:#506471}
    .fil2 {fill:#EDAE4B}
    .fil3 {fill:#F0B501}
    .fil4 {fill:#F4C44E}
    .fil1 {fill:#F8E97F}
   ]]>
  </style>
 </defs>
 <g id="Capa_x0020_1">
  <metadata id="CorelCorpID_0Corel-Layer"/>
  <g id="_2134919867200">
   <path class="fil0" d="M279.75 846l12.45 0 31.65 -70.44c1.93,-2.64 4.76,-7.28 6.69,-9.92 14.87,-9.7 194.03,-198.75 230.45,-226.4 14.52,-11.03 27.49,-21.01 44.59,-31.41 16.04,-9.75 33.83,-17.98 50.69,-26.43 -4.59,-8.46 -218.53,-219.95 -249.09,-250.51 -8.03,-8.03 -29.39,-31.44 -37.12,-35.9 -16.02,35.17 -43.68,82.85 -70.66,110.79 -4.36,4.51 -6.74,6.17 -10.66,10.76 -4.03,4.71 -6.95,7.52 -11.3,11.85l-182.55 182.62c-10.89,10.9 -9.53,11.74 -26.6,19.7 -13.98,6.53 -53.18,22.19 -62.5,29.43 -1.86,25.36 20.08,51.01 38.48,60.11 9.86,4.88 16.21,4.47 25.84,7.22 5.05,17.19 1.93,24.82 14.1,37.1 11.01,11.12 20.34,9.96 37.39,13.87 4.39,17.73 1.76,25.02 13.88,37.3 11.15,11.3 20.12,10.07 37.33,13.97 4.6,17.49 1.69,24.98 13.83,37.31 11.29,11.48 20.23,9.7 37.16,14.14 6.26,20.09 5.93,36.45 34.25,54.91 7.78,5.07 15.44,6.03 21.7,9.93z"/>
   <path class="fil1" d="M493.94 275.7c4.13,8.34 13,12.99 18.13,20.42 9.38,-3.97 202.38,-200.43 225.25,-223.31 7.19,-7.19 28.14,-25.38 31.71,-33.68 -7.37,-5.15 -12.07,-14.17 -20.25,-17.83l-254.84 254.4z"/>
   <path class="fil2" d="M524.28 307.01l19.45 19.9c6.36,-3.71 252.75,-250.33 256.04,-256.1l-19.35 -19.32 -256.14 255.52z"/>
   <path class="fil1" d="M555.22 339.1c7.4,5.28 12.02,13.76 20.07,18.12 7.83,-5.1 23.45,-22.51 31.2,-30.25 10.59,-10.59 19.97,-19.97 30.57,-30.57 20.45,-20.46 178.69,-176.63 182.82,-184.04l-19.46 -19.89c-41.85,40.21 -81.69,81.64 -122.54,122.48 -14.49,14.5 -119.34,117.53 -122.66,124.15z"/>
   <path class="fil2" d="M708.84 0l-1.24 0 -183.29 183.66c-9.78,9.79 -57.61,55.47 -61.23,62.77 6.72,6.04 12.47,13.75 19.89,18.96l245.22 -244.99 -19.35 -20.4z"/>
   <path class="fil2" d="M586.07 368.3l18.75 19.84c7.81,-3.1 180.99,-178.95 205.93,-203.89 7.77,-7.77 24.3,-22.51 29.57,-30.58l-19.03 -19.51 -235.22 234.14z"/>
   <path class="fil1" d="M647.57 0l-1.18 0c-15.42,16.29 -208.41,205.99 -213.58,214.8l18.4 19.79c4.43,-2.34 210.69,-207.69 215.11,-214.76l-18.75 -19.83z"/>
   <path class="fil1" d="M616.39 400.54l19.66 18.35c8.31,-4.23 45.06,-45.44 51.47,-52.2l152.3 -154.55c-2.93,-7.38 -13.56,-16.05 -19.99,-20.76 -7.43,3.43 -45.25,45.75 -50.98,51.77 -4.3,4.53 -8.61,7.32 -12.95,11.8l-126.82 130.98c-6.06,4.97 -10.14,7.67 -12.69,14.61z"/>
   <path class="fil2" d="M401.91 183.07c3.17,6.62 13.37,17.36 19.71,20.9l54 -50.85c3.96,-3.8 6.26,-7.46 10.15,-11.28 18.08,-17.8 36.89,-33.08 53.76,-52 10.54,-11.83 48.77,-41.66 54.11,-53.9l-19.72 -18.68c-8.63,5.14 -13.08,12.93 -20.65,20.19 -7.73,7.41 -14.39,13.49 -22.17,20.81l-85.44 83.09c-9.78,11.81 -31.75,30.92 -43.75,41.72z"/>
   <path class="fil2" d="M647.14 432.07l20.29 17.31c7.89,-5.61 13.99,-13.98 19.69,-20.31 3.42,-3.8 5.84,-6.82 9.39,-10.45l108.99 -114.04c3.53,-3.92 5.9,-6.56 9.4,-10.46l10.15 -11.57 -20.09 -18.75 -138.13 145c-10.92,12.19 -17.11,14.09 -19.69,23.27z"/>
   <path class="fil3" d="M388.52 366.48c-5.84,3.01 -65.9,62.49 -69.54,68.18 -7.43,11.58 2.64,26.77 17.47,20.91l69.36 -68.06c8.28,-12.61 -4.8,-27.45 -17.29,-21.03z"/>
   <path class="fil3" d="M455.22 423.09c-7.31,3.62 -17.42,15.33 -23.67,21.57 -8.12,8.11 -15.04,15 -23.16,23.11 -3.99,4 -20.7,19.25 -23.15,23.12 -8.07,12.74 4.07,26.85 17.71,21.08l69.19 -68.06c7.76,-12.49 -4.28,-27.07 -16.92,-20.82z"/>
   <path class="fil3" d="M449.95 366.59c-8.8,3.72 -35.83,33.37 -44.51,42.04 -4.24,4.25 -18.66,17.22 -20.63,22.38 -4.65,12.2 7.02,23.33 18.51,18.68 3.84,-1.56 62.81,-59.73 64.74,-64.41 5.06,-12.29 -6.34,-23.68 -18.11,-18.69z"/>
   <path class="fil3" d="M450.35 489.31c-10.49,4.74 -11.5,8.01 -21.86,18.39 -7.96,7.97 -35.31,32.4 -37.3,41.89 -2.31,11 8.09,19.82 19.06,15.98 4.65,-1.63 57.42,-51.5 59.28,-60.18 2.71,-12.69 -7.94,-21.17 -19.18,-16.08z"/>
   <path class="fil3" d="M326.85 366.21c-7.26,3.63 -32.58,30.81 -39.81,38.04 -4.53,4.52 -16.38,14.78 -18.27,21.45 -3.2,11.33 7.53,22.15 19.72,16.65 1.54,-0.7 56.52,-53.04 58.2,-59.59 3.16,-12.28 -8.73,-22.09 -19.84,-16.55z"/>
   <path class="fil4" d="M112.88 589.53c4,5.83 14.44,16.95 20.71,19.78l18.98 -19.3c-4.49,-5.81 -16.21,-17.79 -21.79,-20.77 -2.64,3.46 -5.31,5.88 -8.68,9.18 -1.9,1.87 -3.26,2.97 -5.01,4.87 -3.8,4.17 -2.06,1.26 -4.21,6.24z"/>
   <path class="fil4" d="M143.22 618.94c2.64,6.17 13.91,16.83 19.73,20.68 7.5,-3.41 11.9,-11.53 20.29,-17.92 -3.03,-5.66 -14.87,-17.18 -20.29,-21.36l-19.73 18.6z"/>
   <path class="fil4" d="M81.85 560.06l19.49 18.67 20.15 -18.96c-2.8,-5.61 -14.93,-16.54 -19.67,-20.81 -4.75,4.27 -16.88,15.2 -19.97,21.1z"/>
   <path class="fil4" d="M265.87 742.86l19.32 19.86c5.32,-2.88 16.89,-15.07 20.73,-20.07l-20.17 -19.95 -19.88 20.16z"/>
   <path class="fil4" d="M173.78 650.2l18.96 20.13c5.28,-2.65 16.68,-15.11 20.78,-19.66 -4.1,-4.55 -15.5,-17.01 -21.09,-19.96l-18.65 19.49z"/>
   <path class="fil4" d="M235.35 711.55c3.4,6.22 14.16,16.99 20.13,20.13l19.81 -19.49 -19.78 -19.83 -20.16 19.19z"/>
   <path class="fil4" d="M204.51 682.16l19.63 19.33 19.85 -19.46 -19.44 -20.57c-4.9,3.73 -17.12,15.34 -20.04,20.7z"/>
  </g>
 </g>
</svg>
