<?xml version="1.0" encoding="UTF-8"?>
<!DOCTYPE svg PUBLIC "-//W3C//DTD SVG 1.1//EN" "http://www.w3.org/Graphics/SVG/1.1/DTD/svg11.dtd">
<!-- Creator: CorelDRAW 2020 (64-Bit) -->
<svg xmlns="http://www.w3.org/2000/svg" xml:space="preserve" width="846px" height="846px" version="1.1" style="shape-rendering:geometricPrecision; text-rendering:geometricPrecision; image-rendering:optimizeQuality; fill-rule:evenodd; clip-rule:evenodd"
viewBox="0 0 846 846"
 xmlns:xlink="http://www.w3.org/1999/xlink"
 xmlns:xodm="http://www.corel.com/coreldraw/odm/2003">
 <defs>
  <style type="text/css">
   <![CDATA[
    .fil0 {fill:#43413C}
    .fil1 {fill:#FECF73}
    .fil2 {fill:white}
   ]]>
  </style>
 </defs>
 <g id="Capa_x0020_1">
  <metadata id="CorelCorpID_0Corel-Layer"/>
  <path class="fil0" d="M219.42 743.05c27.37,29.13 -31.78,62.2 67.58,88.36 81.69,21.51 273.12,23.01 322.02,-21.47 15.86,-14.43 8.33,-35.37 10.37,-49.47 3.13,-21.64 -2.53,-7.08 7.45,-17.31 4.96,-7.82 39.46,-21.6 50.17,-29.06 21.64,-15.07 30.52,-22.59 48.56,-39.77 98.2,-93.5 135.43,-255.42 114.23,-396.28 -7.47,-49.58 -64.25,-64.92 -91.19,-80.88l-99.19 -115.21c-69.56,-50.68 -120.94,-81.14 -224.35,-81.94 -117.94,-0.92 -192.27,44.5 -267.59,118.62l-55.3 75.1c-14.62,12.62 -85.89,30.22 -95.56,80.8 -17.72,92.7 4.96,220.94 39.55,297.07 56.37,124.06 168.55,165.38 173.25,171.44z"/>
  <path class="fil1" d="M817.47 429.29l-10.17 9.67c-3.09,2.66 -6.5,5.26 -9.66,7.25l-60.24 27.71c-96.9,36.77 -212.83,47.15 -317.97,47.08 -98.4,-0.06 -291.84,-18.05 -376.51,-76.45 -3.62,-2.5 -6.29,-4.91 -9.59,-7.85l-5.12 -4.84c-0.45,-1.65 -1.73,-1.74 -2.63,-2.57 8.48,106.97 63.49,199.24 119.8,244.62 72.38,58.34 154.12,86.19 274.04,86.6 229.71,0.79 376.32,-118.02 398.05,-331.22z"/>
  <path class="fil2" d="M96.19 255.95c121.05,107.07 532.06,107.4 653.47,0 -18.65,-62.68 -80.42,-130.06 -116.66,-161.62 -114.01,-99.25 -301.55,-96.8 -417.87,-1.91 -37.05,30.22 -100.85,102.35 -118.94,163.53z"/>
  <path class="fil1" d="M760.7 225.26l12.25 34.65c-111.25,128.48 -588.96,128.28 -699.38,0.25l11.95 -34.77c-89.46,32.2 -86.11,99.61 56.18,141.32 161.82,47.44 397.36,47.57 559.28,1.04 39.46,-11.34 85.17,-30.85 106.45,-53.2 38.23,-40.14 -14.82,-77.5 -46.73,-89.29z"/>
  <path class="fil0" d="M244.23 210.85c10.12,13.94 11.43,37.75 75.83,34.46 96.11,-4.91 103.46,-87.72 -16.54,-74.93 32.95,-72.87 -60.01,-49.52 -92.19,-27.29 -51.71,35.74 -52.85,90.79 32.9,67.76z"/>
  <path class="fil1" d="M245.79 788.8c51.99,48.8 227.69,45.14 300.64,25.62 47.9,-12.82 53.91,-11.27 53.91,-61.35 -57.75,7.51 -65.76,25.84 -175.31,26.12 -32.29,0.09 -64.49,-2.33 -95.86,-7.02 -27.87,-4.15 -61.29,-16.55 -83.34,-18.79l-0.04 35.42z"/>
  <path class="fil0" d="M541.59 225.05c-118.05,-0.19 -71.67,91.69 32.8,75.42 37.3,-5.81 38.25,-11.23 46.19,-41.78 118.34,-13.66 68.86,-99.46 -32.91,-71.48 -25.55,7.03 -38.73,14.27 -46.08,37.84z"/>
  <path class="fil0" d="M556.94 123.91c4.49,-19.95 6.48,-26.65 -9.7,-40.68 -37.46,-32.53 -113.2,-34.66 -127.65,-8.71 -25.24,45.32 84,80.92 137.35,49.39z"/>
  <path class="fil2" d="M291.58 141.86c-20.73,-2.81 -40.2,1.35 -57.96,11.28 -10.98,6.14 -41.33,28.23 -36.32,38.57 7.61,15.75 45.55,-1.65 55.73,-7.1 21.71,-11.62 33.76,-16.93 38.55,-42.75z"/>
  <path class="fil2" d="M267.62 209.7c11.92,17.06 34.1,16.85 55.56,15.37 22.41,-1.54 44.68,-6.56 50.22,-23.95 -25.99,-19.76 -88.67,-16.44 -105.78,8.58z"/>
  <path class="fil2" d="M435.81 81.72c4.26,18.09 12.33,24.22 43.02,32.08 20.95,5.37 43.26,6.97 60.39,-5.01 -9.41,-33.55 -69.9,-34.58 -103.41,-27.07z"/>
  <path class="fil2" d="M564.17 222.32c11.22,29.25 92.12,21.47 104.75,-10.03 -29.45,-13.5 -80.58,-15.83 -104.75,10.03z"/>
  <path class="fil2" d="M492.36 255.34c8.86,28.95 92.12,39.58 105.07,9.02 -30.13,-18.94 -70.95,-24.69 -105.07,-9.02z"/>
 </g>
</svg>
