<?xml version="1.0" encoding="UTF-8"?>
<!DOCTYPE svg PUBLIC "-//W3C//DTD SVG 1.1//EN" "http://www.w3.org/Graphics/SVG/1.1/DTD/svg11.dtd">
<!-- Creator: CorelDRAW 2020 (64-Bit) -->
<svg xmlns="http://www.w3.org/2000/svg" xml:space="preserve" width="846px" height="846px" version="1.1" style="shape-rendering:geometricPrecision; text-rendering:geometricPrecision; image-rendering:optimizeQuality; fill-rule:evenodd; clip-rule:evenodd"
viewBox="0 0 846 846"
 xmlns:xlink="http://www.w3.org/1999/xlink"
 xmlns:xodm="http://www.corel.com/coreldraw/odm/2003">
 <defs>
  <style type="text/css">
   <![CDATA[
    .str0 {stroke:black;stroke-width:16;stroke-miterlimit:22.9256}
    .fil1 {fill:black}
    .fil0 {fill:#A05A8E}
   ]]>
  </style>
 </defs>
 <g id="Capa_x0020_1">
  <metadata id="CorelCorpID_0Corel-Layer"/>
  <path class="fil0 str0" d="M418.44 846l9.12 0c11.97,-9.89 10.97,-7.16 10.97,-27.86 7.03,4.36 18.35,17.23 29.47,3.44 10.58,-13.13 -5.77,-24.86 -10,-29.88 61.54,-10.05 80.6,-9.1 142.09,-34.62 33.91,-14.07 81.86,-44.22 108.3,-70.17 53.97,-52.95 110.31,-150.8 68.04,-262.07 -24.77,-65.22 -69.41,-111.09 -122.61,-145.13 -53.48,-34.22 -110.11,-40.36 -138.72,-128.89 -7.23,-22.36 -12.53,-88.18 -15.71,-118.14 -1.81,-17.11 -1.5,-24.61 -12.54,-32.68l-127.73 0c-4.59,4.34 -8.54,5.76 -10.32,13.52 -5.43,23.68 -7.06,103.79 -17.9,137.3 -28.63,88.57 -85.14,94.61 -138.72,128.89 -20.9,13.37 -34.22,24.22 -50.43,38.83 -27.25,24.57 -54.73,60.34 -72.18,106.3 -42.27,111.27 14.07,209.12 68.04,262.07 26.44,25.95 74.39,56.1 108.3,70.17 61.5,25.52 80.55,24.57 142.1,34.62 -4.24,5.02 -20.57,16.77 -10.01,29.88 11.12,13.79 22.44,0.92 29.47,-3.44 0,20.64 -1.02,18.05 10.97,27.86z"/>
  <path class="fil1" d="M464.88 266.09c-4.48,2.12 -6.72,1.54 -8.32,8.78 -2.12,9.62 6.83,25.42 11.03,39.12 27.81,90.69 30.76,212.46 16.74,305.82 -2.95,19.69 -6.49,37.25 -11.4,56.38 -1.96,7.65 -6.89,18.9 -4.44,26.78 2.5,8.06 12.09,13.33 21.68,8.69 14.68,-7.1 24.97,-85.08 27.62,-108.21 9.33,-81.24 7.47,-170.04 -8.3,-250.29 -3.72,-18.93 -8.53,-36.3 -14,-53.86 -4.72,-15.11 -11.68,-42.17 -30.61,-33.21z"/>
  <path class="fil1" d="M368.64 265.76c-17.09,9.01 -30.83,80.53 -34.66,101.11 -17.3,92.76 -15.14,215.7 7,308.51 3.69,15.45 6.75,44.78 27.7,37.04 17.58,-6.5 4.99,-33.7 1.13,-49.53 -23.7,-97.22 -22.77,-267.89 12.72,-361.33 2.7,-7.12 8.3,-17.36 7.18,-25.32 -1.29,-9.15 -11.67,-15.43 -21.07,-10.48z"/>
  <path class="fil1" d="M255.48 296.52c-9.85,2.07 -24.19,25.39 -30.17,34.53 -59.43,90.79 -65.53,215.84 -17.88,314.07 6.08,12.52 14.09,37.9 31.62,33.59 24.04,-5.91 0.96,-37.11 -1.52,-42.2 -8.02,-16.42 -12.99,-28.81 -18.72,-47.29 -26.1,-84.13 -9.85,-189.79 44.44,-258.21 4.18,-5.27 11.65,-12.45 10.57,-21.66 -1.02,-8.81 -9.18,-14.75 -18.34,-12.83z"/>
  <path class="fil1" d="M582.48 297.53c-40.89,16.57 48.36,47.99 56.08,185.02 2.46,43.74 -2.22,76.78 -14.11,115.44 -11,35.75 -31.5,58.02 -27.77,70.71 2.45,8.3 12.23,13.32 21.54,9.04 12.17,-5.59 36.28,-68.32 41.44,-89.18 18.13,-73.2 13.13,-153.68 -18.75,-221.61 -13.3,-28.33 -22.59,-39.01 -38.2,-60.87 -5.05,-7.07 -10.14,-12.64 -20.23,-8.55z"/>
 </g>
</svg>
