<?xml version="1.0" encoding="UTF-8"?>
<!DOCTYPE svg PUBLIC "-//W3C//DTD SVG 1.0//EN" "http://www.w3.org/TR/2001/REC-SVG-20010904/DTD/svg10.dtd">
<!-- Creator: CorelDRAW 2020 (64-Bit) -->
<svg xmlns="http://www.w3.org/2000/svg" xml:space="preserve" width="846px" height="846px" version="1.0" style="shape-rendering:geometricPrecision; text-rendering:geometricPrecision; image-rendering:optimizeQuality; fill-rule:evenodd; clip-rule:evenodd"
viewBox="0 0 846 846"
 xmlns:xlink="http://www.w3.org/1999/xlink"
 xmlns:xodm="http://www.corel.com/coreldraw/odm/2003">
 <defs>
  <style type="text/css">
   <![CDATA[
    .fil0 {fill: #B0A89C}
   ]]>
  </style>
 </defs>
 <g id="Capa_x0020_1">
  <metadata id="CorelCorpID_0Corel-Layer"/>
  <path class="fil0" d="M416.49 46.52c0.42,13.96 5.23,34.14 7.27,49.04 2.35,17.12 3.7,33.78 4.26,51.08 3.3,102.26 0.66,196.58 -51.26,283.57 -14.14,23.68 -29.13,42.91 -40.4,71 -11.4,28.38 -16.09,63.84 -10.48,96.83 7.32,43.14 32.2,80.76 63.23,104.03 11.91,8.93 33.84,18.92 35.86,21.12 -12.07,2.97 -27.37,4.56 -40.05,6.74 -10.81,1.86 -31.03,4.21 -40.19,7.79 -13.02,5.08 -12.62,24.8 6.13,23.82 14.43,-0.76 28.61,-5.15 42.87,-5.51 -2.98,5.05 -13.21,14.73 -17.67,19.11 -6.8,6.68 -7.1,19.12 3.29,22.89 8.35,3.02 19.39,-9.05 22.93,-12.35 2.93,-2.73 14.41,-15.31 17.46,-17.31 1.53,-0.99 -0.08,-0.23 1.63,-0.82 3.04,16.01 -5.87,46.61 13.2,48.37 18.6,1.72 12.09,-24.5 14.23,-48.26 2.46,0.1 2.94,1.34 4.84,3.07 1.9,1.72 3.17,2.82 5.07,4.54 10.93,9.96 21.74,25.6 32.31,22.51 9.87,-2.88 12.66,-11.97 4.26,-22.53 -4.98,-6.26 -13.93,-12.71 -17.37,-20 7.99,0.7 21.07,4.3 29.76,5.88 12.37,2.25 18.89,5.31 25.8,-4.42 7.37,-10.38 -3.99,-17.26 -12.33,-19.42 -7.28,-1.88 -23.96,-3.95 -28.57,-7.19 49.03,-0.76 73.52,2.55 114.8,-31.82 22.82,-19 45.7,-50.83 58.71,-87.6 30.23,-85.47 14.04,-167.78 -27.79,-233.5 -39.96,-62.76 -79.99,-72.55 -121.72,-170.8 -14.5,-34.13 -25.03,-73.13 -35.45,-110.73 -4.71,-17 -10.25,-41.34 -17.05,-56.14 -5.39,-11.71 -10.85,-11.35 -23.11,-5.65 -4.56,2.12 -21.71,9.82 -24.47,12.66zm-45.61 677.29c-1.73,-4.84 -7.51,-8.29 -10.94,-11.72 -13.66,-13.67 -20.86,-20.36 -32.37,-38.11 -45.34,-69.98 -36.51,-151.94 2.49,-219.08 11.54,-19.89 24.08,-36.22 34.98,-58.13 22.15,-44.51 33.58,-99.71 36.89,-150.43 1.11,-17.14 3.39,-78.5 0.09,-91.68 -4.07,4.17 -24.06,53.98 -43.63,80.47 -17.4,23.54 -39.99,42.93 -64.28,61.08 -43.45,32.5 -85.36,76.51 -106.24,144.47 -20.64,67.16 -14.87,152.22 16.13,208.02 23.69,42.63 59.76,72.51 109.47,78.4 11.63,1.38 48.58,2.1 57.41,-3.29zm337.18 -203.71c-0.05,47.63 -9.93,88.11 -28.34,125.17 -9.32,18.77 -17.44,31.48 -28.73,45.24 -10.71,13.04 -16.6,17.94 -27.23,28.51 -2.97,2.95 -8.73,6.37 -10.22,9.24 33.3,0.61 65.12,-11.74 85.81,-27.67 67.66,-52.08 84.18,-165.4 62.53,-247.69 -16.81,-63.9 -48.59,-102.6 -83.61,-135.71 -20.34,-19.23 -82.02,-59.95 -109.59,-81.92 -4.43,-3.53 -11.4,-9.66 -15.44,-11.77 10.91,23.8 29.84,46.32 45.81,65.84 8.73,10.66 27.87,30.23 39.88,44.53 38.87,46.27 69.2,111.48 69.13,186.23zm-632.87 15.67c0.15,75.33 30.95,138.69 92.38,171.07 13.09,6.9 50.99,20.17 68.19,19.55 -2.2,-3.89 -14.69,-12.44 -18.65,-16.83 -20,-22.21 -29.97,-32.58 -43.46,-63.56 -29.23,-67.15 -31.49,-147.91 -9.26,-218.36 14.26,-45.17 43.21,-89.4 76.2,-121.4 10.61,-10.29 34.99,-29.19 47,-38.31 6.75,-5.12 26.89,-20.57 30,-26.19 -13.66,3.88 -75.25,40.93 -85.55,48.11 -75.27,52.49 -157.07,138.23 -156.85,245.92z"/>
 </g>
</svg>
