<?xml version="1.0" encoding="UTF-8"?>
<!DOCTYPE svg PUBLIC "-//W3C//DTD SVG 1.1//EN" "http://www.w3.org/Graphics/SVG/1.1/DTD/svg11.dtd">
<!-- Creator: CorelDRAW 2020 (64-Bit) -->
<svg xmlns="http://www.w3.org/2000/svg" xml:space="preserve" width="846px" height="846px" version="1.1" style="shape-rendering:geometricPrecision; text-rendering:geometricPrecision; image-rendering:optimizeQuality; fill-rule:evenodd; clip-rule:evenodd"
viewBox="0 0 846 846"
 xmlns:xlink="http://www.w3.org/1999/xlink"
 xmlns:xodm="http://www.corel.com/coreldraw/odm/2003">
 <defs>
  <style type="text/css">
   <![CDATA[
    .fil1 {fill:black}
    .fil0 {fill:#FECF73}
   ]]>
  </style>
 </defs>
 <g id="Capa_x0020_1">
  <metadata id="CorelCorpID_0Corel-Layer"/>
  <path class="fil0" d="M26.7 233.1c-13.22,5.32 -25.81,17.9 -25.81,35.32 0,75.36 -5.64,184.44 11.49,252.84 12.65,50.54 35.29,103.25 64.79,143.78 19.53,26.84 35.88,46.63 60.81,68.65 5.69,5.03 7.99,7.76 14.2,12.77 109.71,88.54 231.21,117.63 369.4,87.6 13.04,-2.83 29.46,-7.47 40.33,-11.81 62.9,-25.1 98.07,-43.23 146.06,-87.69 17.58,-16.28 8.45,-6.05 26.11,-26.04 47.95,-54.27 84.26,-112.8 100.38,-187.31 6.29,-29.04 11.54,-58.36 11.54,-92.76l0 -160.03c0,-16.99 -11.98,-29.25 -24.55,-34.79l-794.75 -0.53z"/>
  <path class="fil1" d="M81.81 462.61l683.28 0c0,58.59 -46.23,151.81 -88.56,193.75 -37.71,37.37 -67.65,62.78 -118.97,84.22 -38.78,16.19 -72.32,23.89 -114.33,25.92 -8.1,0.39 -10.02,2.03 -19.8,1.92 -16.78,-0.18 -56.85,-5.33 -72.36,-8.67 -45.39,-9.76 -89.06,-28.61 -126.18,-55.43l-33.86 -27.27c-13.79,-13.95 -27.38,-26.39 -39.13,-41.79 -26.1,-34.2 -42.29,-65.06 -55.94,-105.89 -5.25,-15.7 -14.15,-46.25 -14.15,-66.76zm-3.6 -154.63l690.47 0 0 75.52 -690.47 0 0 -75.52zm607.76 -77.32l-521.45 0c23.92,-45.22 62.04,-37.76 127.66,-37.76 27.57,0 55.16,-0.11 82.72,0 16.28,0.07 24.32,0.02 33.7,-7.66 20,-16.39 20.31,-46.15 -0.23,-61.78 -10.7,-8.14 -19.17,-7.88 -37.07,-7.88 1.78,-2.66 43.51,-39.11 53.88,-34.27 1.46,0.68 7.21,5.44 9.31,7.04 3.31,2.51 5.75,4.33 9.25,6.93 14.43,10.7 43.55,38.48 68.58,57.29 22.92,17.23 51.49,34.42 86.24,39.63 16.21,2.43 32.13,-0.93 55.78,7.16 19.07,6.52 23.2,15.37 31.63,31.3zm-602.37 0c-17.67,0 -42.68,-3.29 -56.9,2.43 -13.22,5.33 -25.81,17.9 -25.81,35.33 0,75.36 -5.64,184.43 11.49,252.84 12.65,50.54 35.29,103.24 64.79,143.78 19.53,26.84 35.88,46.63 60.81,68.65 5.69,5.03 7.99,7.76 14.2,12.77 109.71,88.54 231.21,117.63 369.4,87.6 13.04,-2.83 29.46,-7.47 40.33,-11.81 62.9,-25.1 98.07,-43.23 146.06,-87.7 17.58,-16.28 8.45,-6.04 26.11,-26.03 47.95,-54.28 84.26,-112.8 100.38,-187.32 6.29,-29.03 11.54,-58.36 11.54,-92.75l0 -160.03c0,-16.99 -11.98,-29.25 -24.55,-34.79 -13.69,-6.03 -38.52,-2.97 -56.36,-2.97 -2.76,-33.1 -25.69,-70.22 -53.17,-88.89 -46.6,-31.65 -94.59,-22.8 -114.32,-29.52 -16.52,-5.63 -31.22,-16.27 -44.18,-25.95 -7.08,-5.29 -13.56,-10.14 -19.84,-16.12l-19.47 -16.49c-21.82,-16.88 -52.4,-53.19 -90.66,-53.19 -33.17,0 -89.69,42.77 -112.82,63.4l-28.81 25.14c-3.4,3.14 -5.64,5.67 -8.97,9.01 -27.18,27.25 -20.77,15.08 -52.5,17.62 -49.54,3.97 -88.96,22.73 -115.92,63.89 -6.5,9.92 -19.7,37.53 -20.83,51.1z"/>
 </g>
</svg>
