<?xml version="1.0" encoding="UTF-8"?>
<!DOCTYPE svg PUBLIC "-//W3C//DTD SVG 1.1//EN" "http://www.w3.org/Graphics/SVG/1.1/DTD/svg11.dtd">
<!-- Creator: CorelDRAW 2020 (64-Bit) -->
<svg xmlns="http://www.w3.org/2000/svg" xml:space="preserve" width="846px" height="846px" version="1.1" style="shape-rendering:geometricPrecision; text-rendering:geometricPrecision; image-rendering:optimizeQuality; fill-rule:evenodd; clip-rule:evenodd"
viewBox="0 0 846 846"
 xmlns:xlink="http://www.w3.org/1999/xlink"
 xmlns:xodm="http://www.corel.com/coreldraw/odm/2003">
 <defs>
  <style type="text/css">
   <![CDATA[
    .fil1 {fill:#E28540}
    .fil0 {fill:#EFA55E}
   ]]>
  </style>
 </defs>
 <g id="Capa_x0020_1">
  <metadata id="CorelCorpID_0Corel-Layer"/>
  <g id="_3141746759440">
   <path class="fil0" d="M270.71 97.49c1.67,1.65 31.69,5.94 37.52,7.49 26.83,7.15 15.97,22.74 13.22,24.94 -7.6,6.07 -26.37,-2.13 -37.46,-3.86 -15.3,-2.39 -27.82,-0.27 -41.03,-4.94 -25.14,20.46 -46.44,65 -65.92,100.65 -50.66,92.75 -109.82,141.48 -138.19,193.98 -39.88,73.81 -32.24,111.76 -38.85,126.84l0 39.95c1.98,6.05 3.52,26.01 5.55,35.03 2.49,11.1 5.61,21.43 9.59,31.66 5.07,13.03 21.68,46.74 29.63,52.02 12.98,7.22 21.77,13.84 36.43,20.76 13.27,6.26 28.14,10.79 43.7,13.98 36.8,7.57 70.87,10.57 93.33,-12.02 44.78,-45.07 -26.94,-78.75 -8.02,-183.33 18.9,-104.53 114.74,-173.99 210.87,-188.66 13.68,-2.08 42.07,-0.88 51.99,-6.42 -32.75,-11.78 -13.81,-28.18 -5.49,-28.29 33.49,-0.46 30.93,47.33 81.18,8.56 9.93,-7.66 20.68,-18.67 27.1,-34 21.37,-51.06 -0.19,-147.25 -36.52,-194.45 -6.56,-8.14 -43.35,-26.06 -58.33,-31.34 -50.12,-17.69 -103.41,-17.22 -153.46,0.55 -13.46,4.78 -52.64,23.31 -56.84,30.9z"/>
   <path class="fil0" d="M775.37 378.8c-6.99,-11.69 -72.16,-40.27 -94.26,-34.57 -6.46,0.75 -12.28,-0.27 -20.12,0.82 7.96,3.13 26.67,23.53 32.13,34.37 7.86,15.64 17.06,47.65 -6.84,41.72 -19.14,-4.74 4.72,-31.85 -54.12,-63.45 -6.28,-3.37 -5.16,-4.04 -9.23,-8.79 -11.53,2.12 -55.42,16.09 -80.67,21.65 -65.86,14.49 -120.8,8.23 -174.53,31.99 -43.14,19.08 -48.38,31.24 -64.13,39.91 2.39,2.9 -0.26,0.73 4.05,3.46 0.02,0.02 4.25,2.1 4.48,2.21 26.32,12.67 43.03,45.31 30.1,57.84 -5.92,5.74 -15.08,3.73 -18.76,-1.47 -10.5,-14.82 9.33,-22 -41.32,-40.31 -2.16,3.86 -4.56,6.34 -7.57,10.46 -41.35,56.7 -44.77,135.64 -6.73,194.49 8.37,12.95 7.16,11.43 19.35,20.35 49.07,35.92 109.24,57.95 173.78,60.76 16.02,0.7 61.43,0.86 72.79,-6.55 1.68,-17.17 -10.28,-41.58 6.85,-44.51 18.97,-3.24 18.46,24.85 19.57,39.3 83.22,-20.05 130.78,-73.54 185.54,-128.1 53.92,-53.72 76.39,-131.66 43.5,-204.78 -4.28,-9.51 -10.61,-18.29 -13.86,-26.8z"/>
   <path class="fil1" d="M44.77 701.25c8.46,22.45 57.05,57.26 82.07,69.32 57.85,27.86 127.25,27.23 192.23,11.31 21.72,-5.32 38.39,-12.62 57.7,-18.35 6.31,-1.87 19.04,5.5 26.39,8.3 9.4,3.57 18.69,6.72 28.56,9.4 108.05,29.34 206.44,2.22 290.02,-64.32 13.46,-10.72 26.24,-24.78 37.91,-36.44 25.29,-25.27 52.99,-49.38 68.79,-83.21 4.12,-8.81 7.59,-17.96 10.49,-27.52 2.44,-8.04 4.08,-24.93 7.07,-30.78l0 -42.03 -10.31 -38.71c-9.33,-27.19 -39.82,-71.53 -60.32,-79.42 3.25,8.51 9.58,17.29 13.86,26.8 32.89,73.12 10.42,151.06 -43.5,204.78 -54.76,54.56 -102.32,108.05 -185.54,128.1 -1.11,-14.45 -0.6,-42.54 -19.57,-39.3 -17.13,2.93 -5.17,27.34 -6.85,44.51 -11.36,7.41 -56.77,7.25 -72.79,6.55 -64.54,-2.81 -124.71,-24.84 -173.78,-60.76 -12.19,-8.92 -10.98,-7.4 -19.35,-20.35 -38.04,-58.85 -34.62,-137.79 6.73,-194.49 3.01,-4.12 5.41,-6.6 7.57,-10.46 50.65,18.31 30.82,25.49 41.32,40.31 3.68,5.2 12.84,7.21 18.76,1.47 12.93,-12.53 -3.78,-45.17 -30.1,-57.84 -0.23,-0.11 -4.46,-2.19 -4.48,-2.21 -4.31,-2.73 -1.66,-0.56 -4.05,-3.46 15.75,-8.67 20.99,-20.83 64.13,-39.91 53.73,-23.76 108.67,-17.5 174.53,-31.99 25.25,-5.56 69.14,-19.53 80.67,-21.65 4.07,4.75 2.95,5.42 9.23,8.79 58.84,31.6 34.98,58.71 54.12,63.45 23.9,5.93 14.7,-26.08 6.84,-41.72 -5.46,-10.84 -24.17,-31.24 -32.13,-34.37 7.84,-1.09 13.66,-0.07 20.12,-0.82l-2.52 -0.99c-8.32,-2.22 7.36,0.91 -2.82,-0.66 -11.65,-1.8 -32.77,2.32 -40.78,2.43 0,-63.31 2.81,-99.25 -19.23,-152.63 -12.98,-31.44 -49.28,-80.99 -76.42,-95 36.33,47.2 57.89,143.39 36.52,194.45 -6.42,15.33 -17.17,26.34 -27.1,34 -50.25,38.77 -47.69,-9.02 -81.18,-8.56 -8.32,0.11 -27.26,16.51 5.49,28.29 -9.92,5.54 -38.31,4.34 -51.99,6.42 -96.13,14.67 -191.97,84.13 -210.87,188.66 -18.92,104.58 52.8,138.26 8.02,183.33 -22.46,22.59 -56.53,19.59 -93.33,12.02 -15.56,-3.19 -30.43,-7.72 -43.7,-13.98 -14.66,-6.92 -23.45,-13.54 -36.43,-20.76z"/>
   <path class="fil1" d="M102.45 414.35c-11.66,4.37 -11.7,20.04 1.09,24.12 13.91,4.43 19.32,3.99 31.83,11.2 34.15,19.67 20.84,48.45 43.35,39.86 19.25,-7.34 -2.92,-41.65 -15.97,-52.3 -7.89,-6.43 -44.55,-28.79 -60.3,-22.88z"/>
   <path class="fil1" d="M512.97 427.88c-13.49,4.35 -12.97,18.15 -1.47,24.11 9.69,5.02 16.32,10.16 23.82,17.45 26.79,26.04 11.84,52.38 35.69,44.08 19.91,-6.92 -1.36,-53.17 -31.67,-74.52 -5.16,-3.63 -18.42,-13.69 -26.37,-11.12z"/>
   <path class="fil1" d="M256.54 282.46c-11.97,6.5 -9.58,18.88 0.04,22.85 9.9,4.09 37.16,2.19 55.8,20.28 3.65,3.53 5.92,7.03 8.51,9.62 3.96,3.96 8.85,5.32 14.98,2.57 21.26,-9.56 -8.52,-34.32 -20.54,-41.62 -9.28,-5.62 -46.67,-20.27 -58.79,-13.7z"/>
   <path class="fil1" d="M450.14 148.94c-12.29,6.65 -7.53,18.36 0.22,22.14 10.93,5.32 16.2,4.33 26.05,11.9 6.38,4.91 12.61,11.17 16.32,20.11 3.31,7.99 7.43,21.76 21.28,13.74 17.96,-10.4 -6.87,-48.42 -35.47,-62.39 -7.66,-3.75 -19.83,-10.14 -28.4,-5.5z"/>
   <path class="fil1" d="M663.2 484.32c-20.38,11.43 6.47,25.9 14.2,34.7 10.92,12.41 7.68,41.07 28.69,31.97 23.42,-10.13 -21.08,-78.89 -42.89,-66.67z"/>
   <path class="fil1" d="M242.96 121.12c13.21,4.67 25.73,2.55 41.03,4.94 11.09,1.73 29.86,9.93 37.46,3.86 2.75,-2.2 13.61,-17.79 -13.22,-24.94 -5.83,-1.55 -35.85,-5.84 -37.52,-7.49 -7.94,3.33 -24.32,17.75 -27.75,23.63z"/>
  </g>
 </g>
</svg>
