<svg xmlns="http://www.w3.org/2000/svg" viewBox="0 0 64 64"><path data-name="layer2" fill="#d5e2f4" d="M20.1 2l-12 12v48h24V14l-12-12z"></path><path data-name="layer2" fill="#d5e2f4" d="M56.1 14l-12-12h-24l12 12v48h24V14z"></path><path data-name="opacity" fill="#fff" opacity=".25" d="M20.1 2l12 12h24l-12-12h-24z"></path><path data-name="opacity" fill="#101129" opacity=".25" d="M32.1 14l-12-12v60h12V14z"></path><path data-name="layer1" fill="#ff0000" d="M56.1 46l-24 6V28l24-6v24z"></path><path data-name="stroke" fill="none" stroke="#202020" stroke-linecap="round" stroke-linejoin="round" stroke-width="2" d="M7.9 62V14l12-12h24l12 12v48h-48zm24-48h24"></path><path data-name="stroke" fill="none" stroke="#202020" stroke-linecap="round" stroke-linejoin="round" stroke-width="2" d="M19.9 2l12 12v48m-12-60v60m12-34l24-6m-24 30l24-6"></path></svg>