<?xml version="1.0" encoding="UTF-8"?>
<!DOCTYPE svg PUBLIC "-//W3C//DTD SVG 1.1//EN" "http://www.w3.org/Graphics/SVG/1.1/DTD/svg11.dtd">
<!-- Creator: CorelDRAW 2020 (64-Bit) -->
<svg xmlns="http://www.w3.org/2000/svg" xml:space="preserve" width="846px" height="846px" version="1.1" style="shape-rendering:geometricPrecision; text-rendering:geometricPrecision; image-rendering:optimizeQuality; fill-rule:evenodd; clip-rule:evenodd"
viewBox="0 0 846 846"
 xmlns:xlink="http://www.w3.org/1999/xlink"
 xmlns:xodm="http://www.corel.com/coreldraw/odm/2003">
 <defs>
  <style type="text/css">
   <![CDATA[
    .fil3 {fill:#785548}
    .fil4 {fill:#BDBDBD}
    .fil1 {fill:#FF9800}
    .fil0 {fill:#FFB200}
    .fil2 {fill:white}
   ]]>
  </style>
 </defs>
 <g id="Capa_x0020_1">
  <metadata id="CorelCorpID_0Corel-Layer"/>
  <g id="_2134925290432">
   <path class="fil0" d="M675.88 320.7c-56.41,71.84 -226.26,84.17 -322.63,74.48 33.02,103.17 43.62,161.81 45.61,271.06 0.74,40.41 4.88,68.31 -41.56,57.99 -13.56,-48.04 0.17,-136.95 -30.46,-255.53 -3.43,-13.27 -7.16,-26.13 -11.5,-38.38l-16.84 -30.18c-35.76,120.57 -40.7,182.03 -40.76,306.33 -0.03,40.63 12.33,79.73 -23.07,92.39 -35.71,-12.85 -23.76,-61.49 -23.73,-102.41 0.13,-144.66 6.47,-183.46 46.37,-320.89 -25.64,-20.35 -33.49,-4.89 -87.83,-55.06 -82.21,31.27 -91.91,263.64 -112.53,338.71 -23.8,86.6 -124.56,93.46 18.99,140.87 107.89,35.63 229.74,45.69 344.24,45.92 81.46,0.16 163.13,-5.72 240.99,-18.75 44.83,-7.49 110.36,-24.51 151.47,-44.09 77.2,-36.77 -2.48,-42.98 -24.14,-124.11 -10.74,-40.23 -14.98,-87.02 -21.68,-128.43 -12.01,-74.21 -39.15,-190.44 -90.94,-209.92z"/>
   <path class="fil1" d="M143.49 173.09c32.03,19.26 56.08,42.15 92.97,56.42 19.41,-40.67 81.46,-186.23 134.28,-150.94 22.98,15.34 35.09,37.28 54.38,51.23 62.03,44.82 73.1,-62.72 138.59,27.11 27.01,37.04 58.75,83.83 68.23,140.13 -20.08,12.92 -36.59,21.76 -69.46,28.59l-1.5 6.14 115.17 -17.88c32.26,-24.37 63.86,-28.53 66.02,-83.66 3.17,-80.56 -68.37,-139.87 -127.62,-174.37 -31.56,-18.38 -66.59,-33.59 -106.66,-43.82 -96.05,-24.53 -292.87,-14.91 -366.01,60.11 -30.67,31.44 -31.65,70.07 1.61,100.94z"/>
   <path class="fil2" d="M236.46 229.51c53.33,37.22 241.4,102.67 326.02,96.12 32.87,-6.83 49.38,-15.67 69.46,-28.59 -9.48,-56.3 -41.22,-103.09 -68.23,-140.13 -65.49,-89.83 -76.56,17.71 -138.59,-27.11 -19.29,-13.95 -31.4,-35.89 -54.38,-51.23 -52.82,-35.29 -114.87,110.27 -134.28,150.94z"/>
   <path class="fil3" d="M169.48 320.5c54.34,50.17 62.19,34.71 87.83,55.06 -39.9,137.43 -46.24,176.23 -46.37,320.89 -0.03,40.92 -11.98,89.56 23.73,102.41 35.4,-12.66 23.04,-51.76 23.07,-92.39 0.06,-124.3 5,-185.76 40.76,-306.33l16.84 30.18c4.34,12.25 8.07,25.11 11.5,38.38 30.63,118.58 16.9,207.49 30.46,255.53 46.44,10.32 42.3,-17.58 41.56,-57.99 -1.99,-109.25 -12.59,-167.89 -45.61,-271.06 96.37,9.69 266.22,-2.64 322.63,-74.48l0.27 -6.81 -115.17 17.88c-126.82,41.76 -283.32,19.15 -369.47,-47.85 -10.36,8.51 -1.05,-0.73 -8.72,4.74 -7.95,5.66 -2.72,-0.83 -8.04,6.58 -8.22,11.44 -5.28,10.08 -5.27,25.26z"/>
   <path class="fil0" d="M191.51 283.92c86.15,67 242.65,89.61 369.47,47.85l1.5 -6.14c-84.62,6.55 -272.69,-58.9 -326.02,-96.12 -36.89,-14.27 -60.94,-37.16 -92.97,-56.42 18.55,37.52 36.6,63.67 48.02,110.83z"/>
   <path class="fil4" d="M498.58 206.91c25.42,6.88 27.1,5.44 40.64,-11.84 -0.37,-18.08 -1.54,-16.48 -12.47,-29.56 -32.78,0.93 -37.55,11.88 -28.17,41.4z"/>
   <path class="fil4" d="M530.18 239.36c-28.01,14.13 -5.5,48.74 18.54,39.96 26.51,-9.67 14.31,-56.53 -18.54,-39.96z"/>
  </g>
 </g>
</svg>
