<?xml version="1.0" encoding="UTF-8"?>
<!DOCTYPE svg PUBLIC "-//W3C//DTD SVG 1.1//EN" "http://www.w3.org/Graphics/SVG/1.1/DTD/svg11.dtd">
<!-- Creator: CorelDRAW 2020 (64-Bit) -->
<svg xmlns="http://www.w3.org/2000/svg" xml:space="preserve" width="846px" height="846px" version="1.1" style="shape-rendering:geometricPrecision; text-rendering:geometricPrecision; image-rendering:optimizeQuality; fill-rule:evenodd; clip-rule:evenodd"
viewBox="0 0 846 846"
 xmlns:xlink="http://www.w3.org/1999/xlink"
 xmlns:xodm="http://www.corel.com/coreldraw/odm/2003">
 <defs>
  <style type="text/css">
   <![CDATA[
    .fil1 {fill:black}
    .fil0 {fill:#EED09D}
   ]]>
  </style>
 </defs>
 <g id="Capa_x0020_1">
  <metadata id="CorelCorpID_0Corel-Layer"/>
  <g id="_2135093122720">
   <path class="fil0" d="M556.84 72.7c0,16.1 3.08,18 3.3,28.09l-57.33 38.5c-9.31,7.54 -16.75,14.31 -26.24,21.68 -19.09,14.84 -65.36,66.19 -80.33,88.21 -11.21,16.47 -18.86,24.98 -29.42,44.94 -11.05,0 -13.79,-3.31 -28.09,-3.31 -33.82,0 -68.52,29.04 -71.05,59.49 -18.95,-1.58 -9.8,-3.31 -41.31,-3.31 -18.77,0 -40.68,8.92 -53.42,15.98l-73.39 67.05c-40.79,40.78 -41.58,40.22 2.47,84.27 13.07,13.07 24.93,24.94 38.01,38.01l191.67 191.67c51.18,51.18 42.83,43.91 118.97,-32.22 35.22,-35.23 48.33,-56.19 48.33,-108.64 0,-11.07 -3.1,-15.37 -3.31,-24.79 28.13,-2.34 59.49,-34.85 59.49,-72.7 0,-11.6 -3.31,-15.8 -3.31,-26.44 15.27,-8.08 44.01,-27.67 57.32,-38.52 19.97,-16.26 59.66,-50.97 75.12,-70.29l41.77 -54.06c6.77,-9.32 13.87,-20.54 19.12,-30.45 17.01,0.37 46.16,14.25 78.09,-17.75 18.03,-18.08 22.7,-32.24 22.7,-58.26 0,-29.24 -23.18,-50.44 -38.42,-65.68 -25.36,-25.36 -108.85,-111.02 -130.61,-128.81 -11.12,-9.08 -24.31,-14.14 -37.9,-15.36l-13.06 0c-17.42,1.54 -34.61,9.23 -48.12,22.7 -11.54,11.52 -21.05,27.73 -21.05,50z"/>
   <path class="fil1" d="M375.08 715.47l-244.13 -244.96 47.9 -48.77c3.04,-2.81 3.63,-2.83 6.44,-5.12 19.5,-15.84 36.91,-23.15 65.43,-17.97 24.99,4.55 41.36,24.79 57.03,40.46 16.93,16.93 32.64,32.64 49.57,49.57 16.65,16.65 32.09,32.09 48.74,48.74 29.16,29.16 53.33,49.52 38.46,98.77 -5.91,19.57 -30.74,41.4 -44.24,54.9 -7,7.01 -17.88,19.47 -25.2,24.38zm250.93 -715.47l13.06 0c13.59,1.22 26.78,6.28 37.9,15.36 21.76,17.79 105.25,103.45 130.61,128.81 15.24,15.24 38.42,36.44 38.42,65.68 0,26.02 -4.67,40.18 -22.7,58.26 -31.93,32 -61.08,18.12 -78.09,17.75 -5.25,9.91 -12.35,21.13 -19.12,30.45l-41.77 54.06c-15.46,19.32 -55.15,54.03 -75.12,70.29 -13.31,10.85 -42.05,30.44 -57.32,38.52 0,10.64 3.31,14.84 3.31,26.44 0,37.85 -31.36,70.36 -59.49,72.7 0.21,9.42 3.31,13.72 3.31,24.79 0,52.45 -13.11,73.41 -48.33,108.64 -76.14,76.13 -67.79,83.4 -118.97,32.22l-191.67 -191.67c-13.08,-13.07 -24.94,-24.94 -38.01,-38.01 -44.05,-44.05 -43.26,-43.49 -2.47,-84.27l73.39 -67.05c12.74,-7.06 34.65,-15.98 53.42,-15.98 31.51,0 22.36,1.73 41.31,3.31 2.53,-30.45 37.23,-59.49 71.05,-59.49 14.3,0 17.04,3.31 28.09,3.31 10.56,-19.96 18.21,-28.47 29.42,-44.94 14.97,-22.02 61.24,-73.37 80.33,-88.21 9.49,-7.37 16.93,-14.14 26.24,-21.68l57.33 -38.5c-0.22,-10.09 -3.3,-11.99 -3.3,-28.09 0,-22.27 9.51,-38.48 21.05,-50 13.51,-13.47 30.7,-21.16 48.12,-22.7zm-288.93 342.03c17.18,0 16.94,2.89 30.15,16.11l119.8 119.8c13.53,13.53 16.94,13.17 16.94,30.98 0,11.04 -11.76,21.48 -23.14,21.48 -12.12,0 -21.91,-11.16 -28.5,-17.76l-117.32 -117.32c-7.17,-7.17 -17.21,-15.08 -18.85,-27.47 -1.72,-12.95 9.03,-25.82 20.92,-25.82zm183.41 97.49l-114.42 -113.6c10.21,-14.94 23.47,-39.8 37.25,-56.1 16.81,-19.9 24.4,-29.51 43.71,-48.82l36.24 -33.15c4.67,-3.76 8.02,-6.63 12.79,-10.35l26.7 -19.57c9.58,-6.53 19.51,-11.28 28.78,-17.48l114.42 113.6c-10.22,14.95 -23.47,39.8 -37.25,56.1l-21.23 25.03c-18.23,22.64 -48.47,49.02 -71.31,67.5 -20.19,16.33 -37.33,24.56 -55.68,36.84zm87.57 -361.86c0,-21.6 13.39,-30.58 28.5,-26.99 11.17,2.65 21.45,16.62 28.92,24.1 18.03,18.03 34.85,34.84 52.88,52.87 10.55,10.56 73.44,69.34 76.61,80.48 4.35,15.24 -4.03,29.82 -26.63,29.82 -11.8,0 -34.69,-27.26 -43.37,-35.94l-80.14 -80.14c-11.31,-11.31 -36.77,-32.68 -36.77,-44.2zm-398.21 672.5c0,33.38 48.66,36.05 50.44,1.22 1.65,-32.39 -50.44,-34.6 -50.44,-1.22zm-140.45 -138.79c0,26.35 38.08,33.87 48.43,10.43 17.16,-38.85 -48.43,-50.74 -48.43,-10.43zm61.13 199.93c32.95,0 30.69,-49.57 3.31,-49.57l-8.26 0c-25.97,0 -30.11,49.57 4.95,49.57zm-95.83 -97.49c0,15 9,25.74 22.09,27.55 12.51,1.73 27.48,-9.21 27.48,-20.94 0,-14.48 -4.94,-29.74 -23.13,-29.74 -12.92,0 -26.44,10.96 -26.44,23.13zm-34.7 104.1c0,18.52 9.87,26.81 20.8,28.09l6.26 0c11.59,-1.32 22.51,-9.73 22.51,-21.48 0,-41.51 -49.57,-31.65 -49.57,-6.61zm140.45 -140.45c0,40.55 49.57,34.21 49.57,3.31 0,-7.74 -2.69,-13.9 -7,-17.79 -17.24,-15.6 -42.57,-2.69 -42.57,14.48z"/>
  </g>
 </g>
</svg>
