<?xml version="1.0" encoding="UTF-8"?>
<!DOCTYPE svg PUBLIC "-//W3C//DTD SVG 1.1//EN" "http://www.w3.org/Graphics/SVG/1.1/DTD/svg11.dtd">
<!-- Creator: CorelDRAW 2020 (64-Bit) -->
<svg xmlns="http://www.w3.org/2000/svg" xml:space="preserve" width="846px" height="846px" version="1.1" style="shape-rendering:geometricPrecision; text-rendering:geometricPrecision; image-rendering:optimizeQuality; fill-rule:evenodd; clip-rule:evenodd"
viewBox="0 0 846 846"
 xmlns:xlink="http://www.w3.org/1999/xlink"
 xmlns:xodm="http://www.corel.com/coreldraw/odm/2003">
 <defs>
  <style type="text/css">
   <![CDATA[
    .fil0 {fill:white}
   ]]>
  </style>
 </defs>
 <g id="Capa_x0020_1">
  <metadata id="CorelCorpID_0Corel-Layer"/>
  <path class="fil0" d="M206.31 644.6c-40.5,0 -35.74,-49.66 0,-49.66 29.55,0 29.55,49.66 0,49.66zm63.21 -45.14c66.13,-15.41 45.47,45.14 22.57,45.14 -13.74,0 -22.68,1.12 -28.15,-16.89 -2.96,-9.78 0.06,-16.76 5.58,-28.25zm225.71 -261.83c5.75,-11.98 4.12,-4.83 4.51,-22.57l45.15 0c-2.68,32.13 -14.41,22.57 -49.66,22.57zm-58.69 0l0 -22.57 45.15 0c-2.61,31.38 -11.31,22.57 -45.15,22.57zm-67.71 -22.57l45.14 0 0 22.57c-36.11,0 -41.09,9.01 -45.14,-22.57zm-63.2 0l45.14 0c0.4,17.74 -1.23,10.59 4.52,22.57 -37.48,0 -45.51,9.78 -49.66,-22.57zm302.45 22.57l-49.65 0c5.75,-11.98 4.11,-4.83 4.51,-22.57l49.66 0c-2.81,12.05 -2.72,8.57 -4.52,22.57zm-370.16 -22.57l49.65 0c0.4,17.74 -1.24,10.59 4.52,22.57l-49.66 0c-0.56,-6.79 -2.48,-18.01 -4.51,-22.57zm311.48 -18.06l-49.66 0c3.09,-5.5 4.52,-4.83 4.52,-13.54l0 -18.06 49.65 0c0,12.85 -0.59,22.83 -4.51,31.6zm-67.71 0l-45.15 0 0 -31.6 49.66 0c0,12.85 -0.59,22.83 -4.51,31.6zm-185.09 -31.6l49.66 0 0 18.06c0,17.26 -1.39,1.64 4.51,13.54l-49.66 0c-3.09,-13.28 -4.51,-13.78 -4.51,-31.6zm67.71 0l49.66 0 0 31.6 -45.14 0c-1.45,-17.43 -3.97,-11.8 -4.52,-31.6zm252.8 31.6l-49.66 0c18.61,-38.77 -12.89,-31.6 58.69,-31.6 -2.46,10.57 -4.75,22.99 -9.03,31.6zm-392.74 -31.6l49.66 0c4.27,8.9 6.53,20.84 9.03,31.6l-49.66 0c-5.31,-11.08 -4.72,-21.95 -9.03,-31.6zm212.17 -58.68l54.17 0 0 36.11 -54.17 0 0 -36.11zm-76.74 0l54.17 0 0 36.11 -54.17 0 0 -36.11zm202.37 35.98l-53.4 0.13 0 -36.11 58.68 0 -5.28 35.98zm-279.88 -35.85l59.45 -0.13 0 36.11 -54.17 0 -5.28 -35.98zm352.88 35.98l-54.17 0c1.45,-17.39 4.51,-14.55 4.51,-36.11l58.69 0c-4.13,8.59 -8.03,24.1 -9.03,36.11zm-428.86 -36.11l58.69 0c0,21.56 3.07,18.72 4.52,36.11l-54.17 0c-1.01,-12.01 -4.91,-27.52 -9.04,-36.11zm446.92 -31.6l-428.87 -0.02c-73.8,-0.41 -62.85,-5.48 -36.1,90.3 5.32,19.04 17.6,51.71 18.05,72.23l-90.28 0c-36.59,0 -51.78,44.21 -9.03,54.17l0 31.6 -63.19 0c-59.32,0 -52.86,58.69 -13.55,58.69l76.74 0 0 189.59c0,23.05 12.66,31.02 31.06,36.66l17.29 5.28c0.88,0.48 2.08,1.08 2.87,1.64 8.41,5.94 10.94,16.1 11.98,28.65l72.23 0c7.15,-13.51 7.34,-31.6 22.57,-31.6l316 0c15.23,0 15.42,18.09 22.57,31.6l72.23 0c4.91,-59.07 63.2,-14.96 63.2,-72.23l0 -189.59 76.74 0c39.31,0 45.77,-58.69 -13.55,-58.69l-63.19 0 0 -31.6c42.75,-9.96 27.56,-54.17 -9.03,-54.17l-85.77 0c0.44,-19.88 28.43,-108.23 37.09,-138.96 4,-14.18 11.07,-32.71 12.57,-50.64 37.95,0 82.05,2.66 112.85,-4.51 6.93,-28.95 6.38,-8.73 0,-36.12 -34.91,-8.13 -70.94,-4.51 -112.85,-4.51 -32.49,0 -38.53,46.89 -40.63,72.23z"/>
 </g>
</svg>
