<?xml version="1.0" encoding="UTF-8"?>
<!DOCTYPE svg PUBLIC "-//W3C//DTD SVG 1.1//EN" "http://www.w3.org/Graphics/SVG/1.1/DTD/svg11.dtd">
<!-- Creator: CorelDRAW 2020 (64-Bit) -->
<svg xmlns="http://www.w3.org/2000/svg" xml:space="preserve" width="846px" height="846px" version="1.1" style="shape-rendering:geometricPrecision; text-rendering:geometricPrecision; image-rendering:optimizeQuality; fill-rule:evenodd; clip-rule:evenodd"
viewBox="0 0 846 846"
 xmlns:xlink="http://www.w3.org/1999/xlink"
 xmlns:xodm="http://www.corel.com/coreldraw/odm/2003">
 <defs>
  <style type="text/css">
   <![CDATA[
    .fil1 {fill:#222428}
    .fil0 {fill:white}
   ]]>
  </style>
 </defs>
 <g id="Capa_x0020_1">
  <metadata id="CorelCorpID_0Corel-Layer"/>
  <g id="_2134956582208">
   <path class="fil0" d="M305.68 561.85c0.57,25.6 23.39,116.75 34.21,144.25 12.32,31.33 23.82,63.77 53.9,79.94 27.55,14.81 52.4,15.03 75.11,-8.09 7.58,-7.72 18.66,-25.33 24.45,-35.04 23.13,-38.75 30.55,-94.22 37.78,-139.02 1.45,-8.99 2.68,-18.54 3.73,-26.01 3.88,-27.5 -7.39,-13.71 58.99,-30.23 17.14,-4.27 30.22,-8.64 45.4,-14.09 80.22,-28.82 157.1,-85.96 186.73,-168.52 18.06,-50.31 20.02,-68.58 20.02,-123.74 0,-8.31 -1.48,-7.4 -1.65,-14.87 -15.74,10.53 -21.95,15.87 -41.79,24.31 -73.1,31.07 -131.52,43.95 -210.72,53.65 -60.84,7.46 -126.25,11.26 -188.67,11.26l-105.76 -3.29c-7.23,-0.38 -6.89,-1.41 -14.86,-1.66 -28.23,-0.89 -85.48,-10.39 -111.66,-15.57 -42.97,-8.5 -135.49,-36.39 -162.64,-73.65 -1.11,-1.53 -1.94,-3.11 -3.5,-4.76 -2.37,-2.5 -0.97,-2.14 -4.75,-3.51l0 2.83c0.03,58.88 1.08,85.15 19.61,141.14 8.8,26.62 32.27,69.71 51.85,90.25 4.3,4.5 5.47,7.13 9.89,11.6 33.3,33.66 77.1,63.22 124.15,79.08 28.13,9.49 72.79,23.74 100.18,23.74z"/>
   <path class="fil0" d="M11.57 180.16c0,7.85 54.7,32.35 64.65,36.14 180.36,68.59 534.16,63.82 713.14,-13.47 8.19,-3.54 14.56,-5.71 21.95,-9.44 5.81,-2.94 15.06,-8.43 21.47,-9.92 0,-14.86 -14.47,-33.58 -24.32,-43.43 -15.82,-15.81 -40.67,-30.74 -61.02,-39.78 -8.56,-3.8 -15.54,-6.9 -24.4,-10.29 -59.18,-22.63 -109.62,-25.85 -168.77,-34.47 -24.82,-3.62 -108.65,-5.87 -131.27,-5.87 -23.72,0 -42.37,1.73 -66.1,1.64 -54.03,-0.2 -163.62,16.22 -207.14,29.14 -9.26,2.75 -17.69,5.9 -26.06,8.65 -35.29,11.61 -79.77,36.45 -101.24,67.29 -3.57,5.13 -10.89,16.49 -10.89,23.81z"/>
   <path class="fil0" d="M586.58 591.6c6.49,27.84 31.89,60.25 59.22,74.61 45.55,23.95 112.61,1.41 122.46,-39.99 5.45,-22.9 4.41,-63.22 1.99,-86.1 -1.04,-9.75 -1.91,-20.19 -1.91,-29.49 -6.53,1.74 -23.25,22.66 -45.11,35.86 -4.15,2.5 -6.12,3.61 -10.35,6.17 -7.59,4.61 -13.56,7.64 -21.96,11.08 -26.48,10.86 -73.86,27.18 -104.34,27.86z"/>
   <path class="fil0" d="M71.05 578.38c0,22.02 -1.44,38.1 9.07,58.68 16.59,32.52 49.3,42.58 87.78,36.52 12.31,-1.94 23.61,-5.29 32.38,-10.58 6.42,-3.88 7.05,-4.15 12.51,-8.98 4.6,-4.06 6.94,-5.31 11.53,-9.95 11.92,-12.04 33.04,-35.81 33.45,-54.13 -35.7,0 -77.21,-5.84 -107.98,-20.9 -14.37,-7.04 -24.83,-11.49 -38.38,-19.45 -6.81,-4 -11.9,-7.02 -18.18,-11.56 -6.57,-4.75 -10.44,-8.94 -17.22,-12.53 0,12.25 -4.96,30.45 -4.96,52.88z"/>
   <path class="fil1" d="M114.22 174.39c0,5.88 41.03,24.26 48.49,27.1 135.27,51.44 400.62,47.86 534.85,-10.1 6.15,-2.66 10.92,-4.29 16.46,-7.08 4.36,-2.21 11.3,-6.33 16.11,-7.45 0,-11.14 -10.86,-25.18 -18.24,-32.56 -11.86,-11.86 -30.51,-23.06 -45.76,-29.84 -6.43,-2.85 -11.66,-5.17 -18.31,-7.72 -44.38,-16.97 -82.21,-19.38 -126.57,-25.85 -18.62,-2.72 -81.49,-4.41 -98.46,-4.41 -17.79,0 -31.78,1.31 -49.57,1.24 -40.52,-0.15 -122.72,12.16 -155.36,21.85 -6.94,2.07 -13.26,4.42 -19.54,6.49 -26.47,8.71 -59.83,27.34 -75.94,50.47 -2.67,3.84 -8.16,12.36 -8.16,17.86z"/>
  </g>
 </g>
</svg>
