<?xml version="1.0" encoding="UTF-8"?>
<!DOCTYPE svg PUBLIC "-//W3C//DTD SVG 1.1//EN" "http://www.w3.org/Graphics/SVG/1.1/DTD/svg11.dtd">
<!-- Creator: CorelDRAW 2020 (64-Bit) -->
<svg xmlns="http://www.w3.org/2000/svg" xml:space="preserve" width="846px" height="846px" version="1.1" style="shape-rendering:geometricPrecision; text-rendering:geometricPrecision; image-rendering:optimizeQuality; fill-rule:evenodd; clip-rule:evenodd"
viewBox="0 0 846 846"
 xmlns:xlink="http://www.w3.org/1999/xlink"
 xmlns:xodm="http://www.corel.com/coreldraw/odm/2003">
 <defs>
  <style type="text/css">
   <![CDATA[
    .str0 {stroke:#ADADAD;stroke-width:16;stroke-miterlimit:22.9256}
    .fil0 {fill:white}
   ]]>
  </style>
 </defs>
 <g id="Capa_x0020_1">
  <metadata id="CorelCorpID_0Corel-Layer"/>
  <path class="fil0" d="M176.71 588.23c0,52.36 4.98,78.65 27.64,126.04 5.68,11.89 16.08,25.17 23.58,35.91 8.6,12.32 9.37,12.34 20.82,23.79 19.09,19.09 43.68,37.71 68.89,48.42 15.96,6.79 23,10.98 42.15,15.69 17.97,4.41 35.02,7.08 51.93,7.92l23.11 0c16.19,-0.81 32.59,-3.32 49.88,-7.6 17.18,-4.25 29.04,-9.2 43.39,-16.1 3.59,-1.73 5.9,-2.32 9.28,-3.93 10.75,-5.14 34.87,-22.23 44.42,-29.94 4.61,-3.73 10.7,-9.88 15.28,-14.46 29.99,-29.99 53.87,-69.77 64.11,-111.04 16.25,-65.48 8.22,-130.18 -25.81,-188.02 -11.16,-18.95 -24.03,-34.49 -39.38,-49.85 -71.82,-71.82 -182.95,-92.32 -274.99,-49.44 -49.17,22.91 -98.37,68.27 -120.47,117.47 -10.85,24.14 -23.83,61.41 -23.83,95.14z"/>
  <path class="fil0 str0" d="M236.2 594.84c0,110.35 87.71,195.5 190.25,192.24 24.38,-0.78 49.6,-6.56 74.68,-18.18 12.03,-5.57 17.37,-8.07 28.49,-16.13 19.19,-13.89 31.61,-26.4 45.57,-45.31 85.23,-115.45 4.7,-294.37 -153.93,-294.37 -96.51,0 -185.06,84.41 -185.06,181.75z"/>
  <path class="fil0" d="M384.91 342.03l51.22 -1.65c9.18,0 9.8,1.65 18.18,1.65l11.52 -204.93c-0.07,-17.72 8.46,-104.4 5.71,-114.67 -4.12,-15.38 -13.9,-20.77 -27.5,-22.43l-44.26 0c-13.06,0 -24.33,9.94 -27.16,20.75 -2.35,8.95 2.3,75 2.32,91.67 0.01,9.92 1.66,11.98 1.77,21.35 0.28,22.44 -0.21,48.04 2.79,69.92l2.16 45.76c0.23,7.62 -0.34,15.62 -0.11,23.24l3.36 69.34z"/>
 </g>
</svg>
